<?xml version="1.0" encoding="UTF-8"?><svg id="Layer_2" xmlns="http://www.w3.org/2000/svg" width="1562.483" height="325.419" viewBox="0 0 1562.483 325.419"><g id="Layer_1-2"><path d="M40.733,279.462c.003-.006.006-.011.009-.016h0c1.398-2.933,1.475-6.155.469-8.993-1.006-2.838-3.094-5.293-6.027-6.691h0c-.006-.003-.012-.005-.018-.007l-18.036-8.598c-5.254-2.505-11.714-1.057-15.012,3.739-4.218,6.134-1.848,14.291,4.588,17.359h0c4.27,2.036,6.082,7.148,4.046,11.418-3.068,6.437.227,14.266,7.366,16.375,5.582,1.649,11.512-1.294,14.016-6.548l8.598-18.037Z" fill="#fcfaf7"/><path d="M41.469,262.416c1.975,3.168,8.051,2.947,13.57-.494,5.519-3.441,8.392-8.799,6.417-11.967-1.975-3.168-8.051-2.947-13.57.494-5.519,3.441-8.392,8.799-6.417,11.968Z" fill="#fcfaf7"/><ellipse cx="58.158" cy="275.081" rx="11.777" ry="6.761" transform="translate(-33.481 9.272) rotate(-7.084)" fill="#fcfaf7"/><path d="M28.158,255.124c2.477,2.516,7.847,1.247,11.995-2.836,4.148-4.083,5.503-9.432,3.026-11.949-2.477-2.516-7.847-1.247-11.995,2.836-4.148,4.083-5.503,9.432-3.026,11.949Z" fill="#fcfaf7"/><path d="M61.701,292.606c.34-3.515-4.081-6.817-9.874-7.377-5.793-.56-10.764,1.836-11.104,5.35s4.081,6.817,9.874,7.377c5.793.56,10.764-1.836,11.104-5.35Z" fill="#fcfaf7"/><path d="M176.468,297.658c.002-.006.004-.011.006-.017h0c.95-3.107.551-6.305-.863-8.964-1.413-2.659-3.841-4.778-6.948-5.729h0c-.006-.002-.013-.003-.019-.005l-19.107-5.842c-5.566-1.702-11.742.683-14.296,5.913-3.267,6.689.28,14.407,7.099,16.492h0c4.524,1.383,7.07,6.172,5.687,10.696-2.085,6.819,2.33,14.076,9.702,15.108,5.764.807,11.195-2.978,12.897-8.545l5.843-19.108Z" fill="#fcfaf7"/><path d="M174.681,280.69c2.421,2.842,8.398,1.727,13.349-2.491s7.002-9.941,4.58-12.783c-2.421-2.842-8.398-1.727-13.349,2.491-4.951,4.218-7.002,9.941-4.58,12.783Z" fill="#fcfaf7"/><ellipse cx="193.057" cy="290.754" rx="11.777" ry="6.761" transform="translate(-70.955 62.486) rotate(-15.569)" fill="#fcfaf7"/><path d="M160.441,275.442c2.821,2.123,7.945.075,11.445-4.574,3.5-4.65,4.051-10.141,1.23-12.264-2.821-2.123-7.945-.075-11.445,4.574-3.5,4.65-4.051,10.141-1.23,12.264Z" fill="#fcfaf7"/><path d="M199.147,307.564c-.183-3.526-5.043-6.141-10.855-5.839-5.812.301-10.376,3.404-10.193,6.93.183,3.526,5.043,6.141,10.855,5.839,5.812-.301,10.376-3.404,10.193-6.93Z" fill="#fcfaf7"/><path d="M552.405,186.977c0-.006,0-.012,0-.019h0c-.192-3.244-1.68-6.102-3.931-8.102-2.251-2-5.265-3.141-8.509-2.949h0c-.006,0-.013.002-.019.002l-19.946,1.179c-5.81.344-10.768,4.73-11.341,10.522-.732,7.408,5.281,13.407,12.399,12.986h0c4.723-.279,8.777,3.323,9.057,8.045.421,7.118,7.087,12.383,14.357,10.783,5.685-1.251,9.456-6.691,9.113-12.502l-1.179-19.947Z" fill="#fcfaf7"/><path d="M544.82,171.694c3.26,1.821,8.473-1.306,11.645-6.984,3.172-5.678,3.1-11.757-.159-13.578-3.26-1.821-8.473,1.306-11.645,6.984-3.172,5.678-3.1,11.757.159,13.578Z" fill="#fcfaf7"/><ellipse cx="565.55" cy="174.726" rx="11.777" ry="6.761" transform="translate(5.158 365.348) rotate(-35.955)" fill="#fcfaf7"/><path d="M529.643,171.735c3.384,1.008,7.474-2.697,9.135-8.275,1.661-5.578.265-10.917-3.119-11.924-3.384-1.008-7.474,2.697-9.135,8.275-1.661,5.578-.265,10.917,3.12,11.924Z" fill="#fcfaf7"/><path d="M577.114,188.363c-1.4-3.242-6.866-3.999-12.209-1.693-5.343,2.307-8.54,6.805-7.141,10.047s6.866,4,12.209,1.693c5.343-2.307,8.54-6.805,7.141-10.047Z" fill="#fcfaf7"/><path d="M657.537,202.029c.002-.006.004-.011.006-.017h0c.95-3.107.551-6.305-.863-8.964-1.413-2.659-3.841-4.778-6.948-5.729h0c-.006-.002-.013-.003-.019-.005l-19.107-5.842c-5.566-1.702-11.742.683-14.296,5.913-3.267,6.689.28,14.407,7.099,16.492h0c4.524,1.383,7.07,6.172,5.687,10.696-2.085,6.819,2.33,14.076,9.702,15.108,5.764.807,11.195-2.978,12.897-8.545l5.843-19.108Z" fill="#fcfaf7"/><path d="M655.75,185.061c2.421,2.842,8.398,1.727,13.349-2.491s7.002-9.941,4.58-12.783c-2.421-2.842-8.398-1.727-13.349,2.491-4.951,4.218-7.002,9.941-4.58,12.783Z" fill="#fcfaf7"/><ellipse cx="674.125" cy="195.124" rx="11.777" ry="6.761" transform="translate(-27.636 188.097) rotate(-15.569)" fill="#fcfaf7"/><path d="M641.509,179.813c2.821,2.123,7.945.075,11.445-4.574,3.5-4.65,4.051-10.141,1.23-12.264-2.821-2.123-7.945-.075-11.445,4.574-3.5,4.65-4.051,10.141-1.23,12.264Z" fill="#fcfaf7"/><path d="M680.215,211.935c-.183-3.526-5.043-6.141-10.855-5.839-5.812.301-10.376,3.404-10.193,6.93.183,3.526,5.043,6.141,10.855,5.839,5.812-.301,10.376-3.404,10.193-6.93Z" fill="#fcfaf7"/><path d="M288.565,213.247c.006,0,.012,0,.018.002h0c3.213.485,5.924,2.227,7.712,4.65,1.788,2.423,2.651,5.528,2.166,8.741h0c-.001.006-.003.013-.004.019l-2.984,19.757c-.869,5.755-5.687,10.295-11.508,10.34-7.444.057-12.873-6.476-11.808-13.526h0c.706-4.678-2.513-9.043-7.191-9.749-7.051-1.065-11.689-8.181-9.436-15.276,1.762-5.548,7.522-8.81,13.277-7.941l19.758,2.984Z" fill="#fcfaf7"/><path d="M303.096,222.187c-1.518-3.411,2.069-8.32,8.012-10.964,5.943-2.644,11.99-2.021,13.508,1.39,1.518,3.411-2.069,8.32-8.012,10.964-5.943,2.644-11.99,2.021-13.508-1.39Z" fill="#fcfaf7"/><ellipse cx="301.957" cy="201.268" rx="11.777" ry="6.761" transform="translate(-48.308 296.143) rotate(-48.841)" fill="#fcfaf7"/><path d="M301.679,237.298c-.697-3.462,3.364-7.199,9.069-8.347,5.706-1.148,10.896.727,11.592,4.188.697,3.462-3.364,7.199-9.069,8.347-5.706,1.148-10.896-.727-11.592-4.188Z" fill="#fcfaf7"/><path d="M289.426,188.515c3.101,1.688,3.36,7.2.578,12.312-2.782,5.112-7.551,7.888-10.653,6.2s-3.36-7.2-.578-12.312c2.782-5.112,7.552-7.888,10.653-6.2Z" fill="#fcfaf7"/><path d="M424.379,255.526c.006.002.012.003.018.005h0c3.106.954,5.531,3.076,6.941,5.737,1.41,2.66,1.806,5.859.852,8.965h0c-.002.006-.005.012-.007.018l-5.866,19.1c-1.709,5.564-7.144,9.343-12.907,8.529-7.371-1.042-11.776-8.304-9.683-15.12h0c1.389-4.522-1.151-9.314-5.674-10.703-6.816-2.094-10.354-9.816-7.079-16.501,2.561-5.227,8.739-7.604,14.303-5.895l19.101,5.866Z" fill="#fcfaf7"/><path d="M437.433,266.512c-.998-3.598,3.274-7.924,9.542-9.661s12.157-.23,13.155,3.368c.998,3.598-3.274,7.924-9.542,9.662-6.268,1.738-12.157.23-13.155-3.368Z" fill="#fcfaf7"/><ellipse cx="439.392" cy="245.654" rx="11.777" ry="6.761" transform="translate(-54.51 342.979) rotate(-40.356)" fill="#fcfaf7"/><path d="M433.801,281.248c-.178-3.526,4.389-6.623,10.202-6.917,5.813-.294,10.669,2.326,10.848,5.853.178,3.526-4.389,6.623-10.202,6.917-5.813.294-10.669-2.326-10.847-5.853Z" fill="#fcfaf7"/><path d="M428.88,231.191c2.818,2.127,2.261,7.617-1.245,12.263-3.506,4.645-8.633,6.687-11.451,4.56-2.818-2.127-2.261-7.617,1.245-12.263,3.506-4.645,8.633-6.687,11.451-4.56Z" fill="#fcfaf7"/><path d="M945.544,39.017c.001-.006.003-.012.004-.018h0c.602-3.193-.148-6.327-1.846-8.814-1.698-2.487-4.345-4.326-7.538-4.927h0c-.006-.001-.013-.001-.019-.003l-19.635-3.7c-5.72-1.078-11.595,1.973-13.557,7.453-2.509,7.008,1.867,14.288,8.875,15.609h0c4.649.876,7.708,5.355,6.832,10.004-1.32,7.007,3.867,13.733,11.308,13.947,5.818.167,10.798-4.195,11.876-9.915l3.7-19.636Z" fill="#fcfaf7"/><path d="M941.897,22.35c2.72,2.558,8.537.791,12.993-3.947,4.456-4.738,5.863-10.652,3.143-13.21-2.72-2.558-8.537-.791-12.993,3.947-4.456,4.738-5.863,10.652-3.143,13.21Z" fill="#fcfaf7"/><ellipse cx="961.27" cy="30.325" rx="11.777" ry="6.761" transform="translate(58.055 360.723) rotate(-21.9)" fill="#fcfaf7"/><path d="M927.164,18.704c3.038,1.799,7.905-.801,10.871-5.809,2.966-5.007,2.908-10.526-.13-12.325-3.038-1.799-7.905.801-10.871,5.809-2.966,5.007-2.908,10.526.13,12.325Z" fill="#fcfaf7"/><path d="M969.176,46.362c-.57-3.485-5.689-5.547-11.432-4.607-5.743.94-9.937,4.527-9.367,8.012s5.689,5.547,11.432,4.607c5.743-.94,9.937-4.527,9.367-8.012Z" fill="#fcfaf7"/><path d="M1059.58,47.466c.003-.005.007-.01.01-.015h0c1.676-2.783,2.065-5.983,1.34-8.905-.725-2.923-2.566-5.568-5.349-7.244h0c-.006-.003-.012-.006-.017-.009l-17.117-10.308c-4.986-3.003-11.556-2.189-15.304,2.264-4.793,5.695-3.227,14.044,2.882,17.722h0c4.053,2.441,5.36,7.704,2.919,11.757-3.679,6.109-1.159,14.22,5.742,17.012,5.396,2.183,11.583-.171,14.586-5.157l10.308-17.117Z" fill="#fcfaf7"/><path d="M1061.967,30.572c1.659,3.345,7.727,3.715,13.554.826,5.827-2.889,9.206-7.943,7.548-11.288-1.659-3.345-7.727-3.715-13.554-.826-5.827,2.889-9.206,7.943-7.548,11.288Z" fill="#fcfaf7"/><ellipse cx="1077.348" cy="44.797" rx="11.777" ry="6.761" transform="translate(-.808 28.483) rotate(-1.514)" fill="#fcfaf7"/><path d="M1049.427,22.023c2.221,2.745,7.689,2.003,12.214-1.658,4.525-3.661,6.392-8.853,4.171-11.599-2.221-2.745-7.689-2.003-12.214,1.658-4.525,3.661-6.392,8.853-4.171,11.598Z" fill="#fcfaf7"/><path d="M1079.173,62.583c.679-3.465-3.4-7.181-9.112-8.301-5.711-1.119-10.892.782-11.571,4.247-.679,3.465,3.4,7.181,9.112,8.301,5.711,1.119,10.892-.782,11.571-4.247Z" fill="#fcfaf7"/><path d="M704.736,91.321c.006.002.012.004.017.006h0c2.999,1.251,5.206,3.599,6.351,6.384,1.146,2.785,1.229,6.007-.022,9.005h0c-.003.006-.006.012-.008.018l-7.692,18.441c-2.241,5.372-8.017,8.605-13.674,7.236-7.235-1.752-10.915-9.408-8.169-15.989h0c1.821-4.366-.242-9.382-4.608-11.204-6.581-2.745-9.352-10.775-5.444-17.11,3.056-4.954,9.436-6.72,14.808-4.479l18.441,7.693Z" fill="#fcfaf7"/><path d="M716.661,103.523c-.644-3.678,4.028-7.568,10.435-8.69,6.407-1.121,12.122.951,12.766,4.629.644,3.678-4.028,7.568-10.435,8.69-6.407,1.121-12.122-.951-12.766-4.629Z" fill="#fcfaf7"/><ellipse cx="720.636" cy="82.953" rx="11.777" ry="6.761" transform="translate(81.461 425.958) rotate(-34.786)" fill="#fcfaf7"/><path d="M711.616,117.837c.165-3.527,5.011-6.166,10.825-5.895,5.814.272,10.393,3.351,10.228,6.878-.165,3.527-5.011,6.166-10.825,5.895-5.814-.272-10.393-3.351-10.228-6.878Z" fill="#fcfaf7"/><path d="M711.577,67.538c2.599,2.391,1.511,7.801-2.429,12.084-3.94,4.283-9.241,5.818-11.84,3.427-2.599-2.39-1.511-7.801,2.429-12.084,3.94-4.283,9.241-5.818,11.84-3.427Z" fill="#fcfaf7"/><path d="M820.713,114.899c.005.003.011.006.016.009h0c2.781,1.68,4.618,4.328,5.34,7.251.722,2.923.329,6.122-1.351,8.903h0c-.003.006-.007.011-.011.016l-10.329,17.104c-3.009,4.983-9.199,7.328-14.592,5.139-6.897-2.8-9.407-10.915-5.721-17.019h0c2.446-4.05,1.145-9.315-2.904-11.761-6.104-3.686-7.66-12.037-2.86-17.726,3.754-4.449,10.324-5.254,15.307-2.245l17.104,10.33Z" fill="#fcfaf7"/><path d="M830.707,128.727c-.094-3.733,5.101-6.891,11.603-7.055,6.502-.164,11.849,2.729,11.943,6.462.094,3.733-5.101,6.891-11.603,7.055-6.502.164-11.849-2.729-11.943-6.462Z" fill="#fcfaf7"/><ellipse cx="837.674" cy="108.969" rx="11.777" ry="6.761" transform="translate(38.434 382.443) rotate(-26.301)" fill="#fcfaf7"/><path d="M823.605,142.14c.683-3.464,5.866-5.359,11.576-4.233,5.71,1.126,9.785,4.848,9.101,8.312-.683,3.464-5.866,5.359-11.576,4.233-5.71-1.126-9.785-4.848-9.101-8.312Z" fill="#fcfaf7"/><path d="M830.989,92.386c2.217,2.748.343,7.938-4.186,11.593-4.529,3.655-9.998,4.39-12.216,1.643-2.217-2.748-.344-7.938,4.186-11.593,4.529-3.655,9.998-4.39,12.216-1.643Z" fill="#fcfaf7"/><path d="M1424.998,72.012c.003-.006.006-.011.009-.016h0c1.457-2.904,1.598-6.124.65-8.982-.948-2.858-2.987-5.354-5.891-6.811h0c-.006-.003-.012-.005-.018-.008l-17.86-8.959c-5.203-2.61-11.69-1.292-15.084,3.436-4.341,6.047-2.136,14.251,4.238,17.448h0c4.229,2.121,5.937,7.269,3.816,11.497-3.197,6.374-.06,14.267,7.035,16.519,5.548,1.761,11.536-1.062,14.145-6.265l8.959-17.86Z" fill="#fcfaf7"/><path d="M1426.077,54.985c1.911,3.208,7.99,3.109,13.577-.221,5.587-3.329,8.567-8.629,6.656-11.836-1.911-3.208-7.99-3.109-13.577.221-5.587,3.329-8.567,8.629-6.656,11.836Z" fill="#fcfaf7"/><ellipse cx="1442.508" cy="67.982" rx="11.777" ry="6.761" transform="translate(.698 149.434) rotate(-5.932)" fill="#fcfaf7"/><path d="M1412.915,47.427c2.426,2.566,7.821,1.404,12.05-2.594,4.229-3.998,5.691-9.32,3.265-11.885-2.426-2.566-7.821-1.404-12.05,2.594-4.229,3.998-5.691,9.32-3.265,11.885Z" fill="#fcfaf7"/><path d="M1445.697,85.575c.41-3.507-3.943-6.898-9.724-7.574-5.781-.676-10.799,1.619-11.209,5.126s3.943,6.898,9.724,7.574c5.781.676,10.799-1.619,11.209-5.126Z" fill="#fcfaf7"/><path d="M1532.309,111.506s.01-.008.014-.012h0c2.377-2.215,3.631-5.184,3.738-8.193.107-3.009-.935-6.059-3.15-8.436h0s-.009-.009-.014-.014l-13.621-14.619c-3.968-4.259-10.508-5.284-15.336-2.033-6.175,4.157-6.966,12.614-2.105,17.831h0c3.225,3.461,3.033,8.882-.428,12.107-5.217,4.861-5.026,13.353.84,17.935,4.587,3.583,11.183,3.023,15.442-.945l14.619-13.621Z" fill="#fcfaf7"/><path d="M1539.252,95.921c.674,3.672,6.407,5.697,12.804,4.523,6.397-1.175,11.036-5.104,10.362-8.776-.674-3.672-6.407-5.697-12.804-4.523-6.397,1.175-11.036,5.104-10.362,8.776Z" fill="#fcfaf7"/><ellipse cx="1550.127" cy="113.828" rx="6.761" ry="11.777" transform="translate(1052.99 1586.481) rotate(-75.546)" fill="#fcfaf7"/><path d="M1529.548,84.252c1.38,3.25,6.842,4.041,12.199,1.766,5.357-2.275,8.581-6.753,7.201-10.003-1.38-3.25-6.842-4.041-12.199-1.766-5.357,2.275-8.581,6.753-7.201,10.003Z" fill="#fcfaf7"/><path d="M1546.988,131.43c1.606-3.144-1.294-7.84-6.477-10.487-5.183-2.647-10.687-2.244-12.293.9-1.606,3.144,1.294,7.84,6.477,10.487,5.183,2.647,10.687,2.244,12.293-.9Z" fill="#fcfaf7"/><path d="M1179.092,56.052s.01.007.015.011h0c2.539,2.028,4.015,4.892,4.35,7.885.335,2.992-.471,6.113-2.499,8.652h0c-.004.005-.009.009-.013.015l-12.469,15.613c-3.632,4.548-10.075,6.068-15.137,3.195-6.474-3.675-7.905-12.048-3.456-17.619h0c2.952-3.697,2.349-9.087-1.348-12.039-5.572-4.45-6.027-12.932-.527-17.947,4.301-3.922,10.921-3.865,15.469-.233l15.614,12.469Z" fill="#fcfaf7"/><path d="M1187.201,71.063c.393-3.713,5.955-6.168,12.423-5.484,6.468.684,11.393,4.249,11,7.962-.393,3.713-5.955,6.168-12.423,5.484-6.468-.684-11.393-4.249-11-7.962Z" fill="#fcfaf7"/><ellipse cx="1196.681" cy="52.381" rx="11.777" ry="6.761" transform="translate(47.07 388.808) rotate(-18.818)" fill="#fcfaf7"/><path d="M1178.413,83.437c1.129-3.346,6.514-4.55,12.029-2.689,5.515,1.86,9.07,6.081,7.941,9.426-1.129,3.346-6.514,4.55-12.029,2.689-5.515-1.86-9.07-6.081-7.941-9.427Z" fill="#fcfaf7"/><path d="M1192.212,35.068c1.841,3.013-.693,7.915-5.66,10.949-4.967,3.034-10.485,3.051-12.326.038s.693-7.915,5.66-10.949c4.967-3.034,10.485-3.051,12.326-.038Z" fill="#fcfaf7"/><path d="M1284.108,110.625s.009.008.013.013h0c2.212,2.38,3.25,5.431,3.139,8.44-.11,3.009-1.368,5.976-3.748,8.188h0s-.01.008-.015.013l-14.636,13.602c-4.264,3.963-10.86,4.515-15.443.926-5.861-4.59-6.041-13.082-.818-17.936h0c3.465-3.221,3.664-8.641.443-12.106-4.854-5.223-4.053-13.68,2.127-17.829,4.833-3.244,11.371-2.211,15.334,2.052l13.603,14.636Z" fill="#fcfaf7"/><path d="M1289.913,126.669c.936-3.614,6.8-5.222,13.096-3.591,6.296,1.631,10.641,5.884,9.705,9.498-.936,3.614-6.8,5.222-13.096,3.591-6.296-1.631-10.641-5.884-9.705-9.498Z" fill="#fcfaf7"/><ellipse cx="1302.046" cy="109.59" rx="11.777" ry="6.761" transform="translate(1.46 235.324) rotate(-10.333)" fill="#fcfaf7"/><path d="M1279.395,137.611c1.61-3.142,7.114-3.539,12.294-.885,5.18,2.654,8.074,7.353,6.464,10.495-1.61,3.142-7.114,3.539-12.294.885-5.18-2.654-8.074-7.353-6.463-10.495Z" fill="#fcfaf7"/><path d="M1300.181,91.808c1.376,3.252-1.854,7.726-7.213,9.995-5.36,2.268-10.82,1.471-12.196-1.781-1.376-3.252,1.854-7.726,7.213-9.995,5.36-2.268,10.82-1.471,12.196,1.781Z" fill="#fcfaf7"/></g></svg>