<?xml version="1.0" encoding="UTF-8"?><svg id="Layer_2" xmlns="http://www.w3.org/2000/svg" width="488.028" height="313.82" viewBox="0 0 488.028 313.82"><g id="Layer_1-2"><path d="M448.868,198.38c-4.35,2.25-9.33,4.01-14.8,5.37,8.53-2.79,14.16-5.11,14.8-5.37Z" fill="#3b3b3b" stroke="#1c1c1c" stroke-linecap="round" stroke-miterlimit="10" stroke-width="6"/><path d="M372.628,208.49c-6.29,0-12.57-.05-18.75-.05-10.11,0-20.61-.47-31.13-1.47-1.83,3.87-4.5,7.7-8.18,11.38-19.18,19.18-54.96,37.47-71.73,32.97,2.28-.97,4.32-2.33,6.06-4.07,3.32-3.32,5.23-7.72,5.83-12.8h.01c15.5-6.15,27.56-18.14,32.83-32.92,1.89-5.28,2.91-10.92,2.91-16.77,0-3.7-.41-7.32-1.19-10.82l10.084-43.032c0-3.73-4.51-5.61-7.16-2.99l-33.674,8.802c-8.21-3.91-17.55-6.12-27.46-6.12-5.83,0-11.46.76-16.78,2.19,4.92-10.9,16.2-26.66,20.86-31.07,33.45-31.66,63.18-53.37,115.41-53.37,63.17,0,117.44,45.98,117.44,95.24,0,4.98.05,10.13-.11,15.19,1.58,4.63,9.57,28.78,14.07,56.51,6.95,42.76,2.05,71.95-14.58,86.77-6.49,5.79-14.8,8.76-23.59,8.76-5.84,0-11.89-1.31-17.76-3.98-12.96-5.9-21.24-17.1-21.1-28.54.09-8.02,4.45-19.96,12.6-27.29,5.3-4.75,11.49-6.94,17.93-6.33,4.95.47,8.58,4.86,8.11,9.81-.47,4.95-4.88,8.57-9.81,8.11-.49-.05-1.98-.19-4.2,1.8-4.05,3.65-6.59,10.67-6.63,14.11-.05,4.18,4.29,9.09,10.56,11.95,6.35,2.89,15.45,3.93,21.92-1.84,11.37-10.14,14.5-35.07,8.82-70.21-1.56-9.66-3.61-18.96-5.64-27.06-.53.58-1.1,1.13-1.7,1.66-2.33,2.04-5,3.81-7.97,5.34,0,0-28.435,10.698-50.549,13.66-13.819,1.85-25.001-3.472-25.751-3.52Z" fill="#3b3b3b" stroke="#1c1c1c" stroke-linecap="round" stroke-miterlimit="10" stroke-width="6"/><path d="M254.728,234.45c-.6,5.08-2.51,9.48-5.83,12.8-1.74,1.74-3.78,3.1-6.06,4.07h-.01c-14.06,6.06-37.22-2.1-55.92-20.8-11.72-11.72-15.83-28.35-15.17-43.16,1.49,28.7,27.48,51.55,59.34,51.55.53,0,1.06-.01,1.59-.02,7.83-.19,15.27-1.76,22.06-4.44Z" fill="#3b3b3b" stroke="#1c1c1c" stroke-linecap="round" stroke-miterlimit="10" stroke-width="6"/><path d="M420.778,153.55s-22.56,6.31-35.24,19.66c-9.44,9.94-12.46,15.32-15.06,26.97-.69,3.07.21,6.12,2.15,8.31,1.27,1.45,3.01,2.52,5.05,2.97,6.16,1.34,15.5,2.16,27.78-.21,10.87-2.11,20.91-4.99,28.59-7.5h.02c8.26-2.7,13.81-4.96,14.73-5.34.03-.01.05-.02.07-.03.02-.01.04-.02.05-.02l.01-.01" fill="#3b3b3b" stroke="#1c1c1c" stroke-linecap="round" stroke-linejoin="round" stroke-width="6"/><path d="M289.288,174.155l10.084-43.032c0-3.73-4.51-5.61-7.16-2.99l-33.674,8.802c-8.21-3.91-17.55-6.12-27.46-6.12-5.83,0-11.46.76-16.78,2.19-3.77,1.01-7.39,2.35-10.81,3.99l-31.818-10.468c-2.66-2.62-7.16-.74-7.16,2.99l8.168,45.508c-.67,3.23-1.01,6.55-1.01,9.95,0,.87.02,1.73.07,2.59v.01c1.49,28.7,27.48,51.55,59.34,51.55.53,0,1.06-.01,1.59-.02,7.83-.19,15.27-1.76,22.06-4.44h.01c15.5-6.15,27.56-18.14,32.83-32.92,1.89-5.28,2.91-10.92,2.91-16.77,0-3.7-.41-7.32-1.19-10.82Z" fill="#3b3b3b" stroke="#1c1c1c" stroke-linecap="round" stroke-miterlimit="10" stroke-width="6"/><path d="M242.454,195.789c7.272-4.553,16.498-6.191,27.679-4.916" fill="none" stroke="#1c1c1c" stroke-linecap="round" stroke-miterlimit="10" stroke-width="3"/><path d="M219.134,195.789c-7.272-4.553-16.498-6.191-27.679-4.916" fill="none" stroke="#1c1c1c" stroke-linecap="round" stroke-miterlimit="10" stroke-width="3"/><path d="M236.656,209.685c0,1.398-2.661,2.943-4.093,2.943s-4.656-1.544-4.656-2.943,1.959-1.713,4.375-1.713,4.375.315,4.375,1.713Z" fill="#1c1c1c" stroke="#1c1c1c" stroke-miterlimit="10" stroke-width="3"/><path d="M13.288,129.966v20.688h100.42v-.014l3.41.014v4.481H5.458c-1.82-10.156-1.82-20.036,0-29.649h111.66v4.481H13.288Z" fill="#0075bf" stroke="#006085" stroke-linecap="round" stroke-linejoin="round" stroke-width="3"/><rect x="13.395" y="129.966" width="100.42" height="20.688" fill="#fcfaf7"/><line x1="16.756" y1="133.595" x2="104.075" y2="133.595" fill="none" stroke="#f6d3af" stroke-linecap="round" stroke-linejoin="round"/><line x1="16.756" y1="136.921" x2="94.543" y2="136.921" fill="none" stroke="#f6d3af" stroke-linecap="round" stroke-linejoin="round"/><line x1="16.756" y1="140.248" x2="88.332" y2="140.248" fill="none" stroke="#f6d3af" stroke-linecap="round" stroke-linejoin="round"/><line x1="16.756" y1="144.191" x2="102.033" y2="144.191" fill="none" stroke="#f6d3af" stroke-linecap="round" stroke-linejoin="round"/><line x1="16.756" y1="147.025" x2="85.011" y2="147.025" fill="none" stroke="#f6d3af" stroke-linecap="round" stroke-linejoin="round"/><rect x="1.5" y="157.485" width="120.511" height="27.064" rx="3.66" ry="3.66" fill="#7a2d2d" stroke="#592020" stroke-linejoin="round" stroke-width="3"/><rect x="20.266" y="157.485" width="9.106" height="27.064" fill="#876632" stroke="#595220" stroke-miterlimit="10" stroke-width="3"/><rect x="94.138" y="157.485" width="9.106" height="27.064" fill="#876632" stroke="#595220" stroke-miterlimit="10" stroke-width="3"/><rect x="1.5" y="157.485" width="120.511" height="27.064" rx="3.66" ry="3.66" fill="none" stroke="#592020" stroke-linejoin="round" stroke-width="3"/><rect x="11.223" y="96.07" width="116.085" height="27.064" rx="3.66" ry="3.66" fill="#305958" stroke="#134737" stroke-linejoin="round" stroke-width="3"/><rect x="27.777" y="96.07" width="9.106" height="27.064" fill="#a69e35" stroke="#736c43" stroke-miterlimit="10" stroke-width="3"/><rect x="101.649" y="96.07" width="9.106" height="27.064" fill="#a69e35" stroke="#736c43" stroke-miterlimit="10" stroke-width="3"/><rect x="11.223" y="96.07" width="116.085" height="27.064" rx="3.66" ry="3.66" fill="none" stroke="#134737" stroke-linejoin="round" stroke-width="3"/><path d="M107.554,55.4c-.84,1.17-5.03,2.21-11.35,2.99-.01-.13-.03-.26-.05-.39-1.61-1.71-13.38-3.04-27.66-3.04s-26.04,1.33-27.65,3.04c-.02.13-.03.26-.04.39-6.34-.78-10.51-1.82-11.36-2.99.03-.34.06-.68.11-1.01,2.27-2.41,18.84-4.28,38.94-4.28s36.68,1.87,38.95,4.28c.05.33.08.67.11,1.01Z" fill="#f6d3af"/><path d="M120.254,59c-3.65-2.26-9.07-.84-12.55.5.01-.19.01-.37.01-.56,0-1.19-.05-2.37-.16-3.54-.84,1.17-5.03,2.21-11.35,2.99-7.09.88-16.89,1.42-27.71,1.42s-20.6-.54-27.69-1.42c-6.34-.78-10.51-1.82-11.36-2.99-.11,1.17-.16,2.35-.16,3.54,0,17.24,11.12,31.87,26.57,37.13h25.28c7.32-2.49,13.67-7.08,18.33-13.06,1.28-.19,8.82-1.39,15.59-5.18,5.26-2.95,8.86-7.85,8.95-12.18.06-2.76-1.27-5.12-3.75-6.65ZM113.094,74.34c-3.65,2.05-7.64,3.27-10.48,3.96,2.46-4.33,4.12-9.17,4.77-14.32,3.32-1.54,8.4-3.04,10.76-1.58,1.28.79,1.89,1.83,1.87,3.16-.06,2.88-2.97,6.57-6.92,8.78Z" fill="#fcefdb"/><path d="M96.204,58.39c-7.09.88-16.89,1.42-27.71,1.42s-20.6-.54-27.69-1.42c.01-.13.02-.26.04-.39,1.61-1.71,13.38-3.04,27.65-3.04s26.05,1.33,27.66,3.04c.02.13.04.26.05.39Z" fill="#5e4b37"/><path d="M79.442,31.604c7.116-9.604,6.116-25.604-4.884-30.604-8-3-18,6-12,14,3,3,7,5,11,1-2,1-4,3-7,2-6-3-7-11-3-15,7-6,18,0,19,8,0,6,3,14-5,18,5-9,7-24-6-26,4,2,6,7,5,11-2,5-7,5-11,4-5-3-6-9-3-14,5-6,14-5,18,2,6,11,5,29-7.92,33.93-1.533,1.105-1.735,1.787-1.926,2.338-.382,1.101-.802,1.71-1.242,1.71s-.86-.609-1.242-1.71c-.095-.275-.166-.584.131-1.001,6.2-2.267,12.2-5.267,14.2-11.267,3-11,2-30-13-30-5,1-9,6-9,11,1,3,2,6,6,7s9-1,10-5-2-7-5-10c11,0,11,15,8,23,5-6,4-13,1-19-4-7-13-9-18-3-2,3-3,8,1,11,3,3,9,3,11-1,2-5-2-10-7-8-5,3-1,9,3,9,1,0,2-2,3-3-4,0,4-7-6-4,1-1,3-2,4-1,5,3,1,10-3,10-5,0-8-7-5-10,1-2,6-3,9-2,5,2,4,9,1,12-6,5-13-2-13-8,1-7,10-11,16-7,10,8,10,23,2,32-5,5-13,5-18,1-3-3-5-7-4-11,5,4,15,7,18-1-9,1-20-7-15-17-3,5,1,12,6,15,4,2,9-2,13-1-3,8-12,11-20,8,1,9,13,11,18.612,5.924.775-.619,1.543-1.383,2.273-2.32Z" fill="#c2bdb6"/></g></svg>