<?xml version="1.0" encoding="UTF-8"?>
<svg xmlns="http://www.w3.org/2000/svg" viewBox="0 0 220.55 291.32">
  <defs>
    <style>
      .cls-1, .cls-2, .cls-3 {
        fill: #221f1f;
      }

      .cls-2 {
        mix-blend-mode: overlay;
        opacity: .51;
      }

      .cls-4 {
        stroke: #07f;
      }

      .cls-4, .cls-5, .cls-6, .cls-7, .cls-8, .cls-9, .cls-10 {
        fill: none;
        stroke-linecap: round;
      }

      .cls-4, .cls-5, .cls-7 {
        stroke-miterlimit: 10;
        stroke-width: 4px;
      }

      .cls-11 {
        fill: #595763;
      }

      .cls-12 {
        fill: #47454f;
      }

      .cls-13 {
        fill: #fff;
        opacity: .49;
      }

      .cls-5 {
        stroke: #fff;
      }

      .cls-6, .cls-8 {
        stroke-width: 3px;
      }

      .cls-6, .cls-8, .cls-9, .cls-10 {
        stroke-linejoin: round;
      }

      .cls-6, .cls-9 {
        stroke: #d93fab;
      }

      .cls-7 {
        stroke: #da2bea;
      }

      .cls-14 {
        isolation: isolate;
      }

      .cls-15 {
        fill: #f09ed7;
      }

      .cls-16 {
        fill: #e8aa68;
      }

      .cls-8 {
        stroke: #605a75;
      }

      .cls-17 {
        fill: #9896a3;
      }

      .cls-9, .cls-10 {
        stroke-width: 5px;
      }

      .cls-10 {
        stroke: #b85c27;
      }

      .cls-3 {
        opacity: .18;
      }
    </style>
  </defs>
  <g class="cls-14">
    <g id="Layer_2" data-name="Layer 2">
      <g id="Line_art" data-name="Line art">
        <g>
          <g>
            <path class="cls-17" d="M64.26,204.81c-.04.65.37,1.7.92,3.14,1,2.6,2.37,6.16,1.15,7.95-.55.8-1.65,1.2-3.27,1.2-9.56,0-12.12-14.67-12.95-19.5l-.29-1.59c-1.31-7.36-2.54-14.3,2.18-18.72,7.61-7.13,6.01-24.65,5.94-25.39l-.15-1.52-.78,1.31c-11.19,18.78-25.51,26.08-41.42,21.1-5.46-1.71-8.68-6.58-10.42-10.37-3.73-8.1-3.9-17.76-1.91-22.4,5.7-13.31,9.79-25.45,2.02-39.38-1.2-2.16-.76-6.6,1.58-8.89,2.16-2.1,5.39-1.97,9.35.37,12.3,7.28,8.31,26.72,6.79,32.51-1,3.83-2.33,6.74-3.6,9.56-2.34,5.15-4.36,9.6-3.18,17.45.33,2.14,1.7,3.83,3.98,4.88,3.78,1.76,9.49,1.45,12.99-.7,9.06-5.57,10.9-15.23,12.86-25.45,1.96-10.26,4.19-21.89,14.04-31.56,8.13-7.97,22.84-14.26,39.88-21.53,10.35-4.42,22.1-9.44,33.53-15.4l-.09-.17.76-.27c-.07-.2-6.9-20.09,2-45.67,1.93-5.54,3.06-8.69,3.99-8.98.45-.15,1.17.37,2.17,1.08.59.42,1.26.89,2.09,1.4,5.07,3.09,11.68,13.44,11.75,13.54l.16.25.29-.02c.24-.02,23.89-1.59,27.95.13l.35.15.23-.3c.1-.12,9.6-12.04,14-16.38.58-.56,1.11-1.11,1.61-1.62,1.77-1.81,3.17-3.24,4.01-2.98,1.49.46,2.64,6.28,3.67,12.5,1.53,9.28,1.71,15.03,1.87,20.1.02.87.05,1.71.08,2.56.17,4.41,2.43,11.91,5.16,17.06,2.11,3.98-.74,13.39-7.55,19.57-8.19,7.43-26.08,8.55-53.19,3.33l-.19.98c11.19,2.15,20.84,3.23,28.92,3.23,9.73,0,17.17-1.56,22.28-4.69.25,3.26,2.11,25.86,5.96,36.33,2.06,5.59,2.14,9.67.24,11.81-1.59,1.79-4.64,2.26-8.59,1.32-5-1.19-6.19-3.2-9.07-8.05-.38-.65-.8-1.35-1.26-2.11-3.59-5.9-5.87-16.5-5.89-16.61l-.08-.39-22.1-.26-.15.2c-.18.23-1.7,2.65.71,15.71,1.35,7.35,1.09,11.65-.83,13.54-1.37,1.33-3.72,1.58-7.64.78-3.48-.72-8.32-5.67-10.36-10.6-2.98-7.19-5.82-19.62-5.85-19.75l-.08-.36-.37-.03c-7.5-.62-30.25,14.78-39.27,23.03-7.92,7.24-11.78,21.79-15.5,35.85l-.69,2.59c-3.17,12-4.24,16.05-12.63,21.2-8.19,5.03-8.12,18.39-8.1,22.77,0,.53.01.93,0,1.16Z"/>
            <path class="cls-1" d="M217.94,152.39l-1.02,48.03c-.33,21.16-9.3,43.02-24.61,59.97-15.58,17.26-35.89,27.16-55.72,27.16-3.25-.11-6.49-.46-9.64-1.05v-.04c.98-.12,1.97-.28,2.97-.49,2.21.32,4.45.51,6.69.58,19.52,0,39.56-9.78,54.96-26.83,15.15-16.78,24.02-38.4,24.35-59.31l1.02-48.01c-.29-8.02-2.45-16.83-6.23-25.47.32-.12.61-.28.89-.46,3.84,8.78,6.04,17.74,6.34,25.92Z"/>
            <path class="cls-16" d="M216.94,152.4l-1.02,48.01c-.33,20.91-9.2,42.53-24.35,59.31-15.4,17.05-35.44,26.83-54.96,26.83-2.24-.07-4.48-.26-6.69-.58,1.45-.29,2.93-.68,4.44-1.17,11.7-3.77,14.94-8.57,18.69-14.13,3.01-4.45,6.42-9.51,15.12-14.85,19.56-12.01,19.98-24.29,20.32-34.16v-.12c.08-2.14-.28-4.51-.69-7.26-1.22-8.18-2.9-19.4,5.74-34.9,12.22-21.93,9.35-31.82-2.25-47.01-10.9-14.27-6-30.01-5.15-32.4h.18c.45,2.02,2.6,11.06,5.93,16.53.45.75.87,1.45,1.25,2.1,2.86,4.81,4.29,7.22,9.7,8.51,3.03.72,5.6.66,7.51-.18,3.78,8.64,5.94,17.45,6.23,25.47Z"/>
            <path class="cls-1" d="M216.44,53.8c2.31,4.37-.51,14.19-7.77,20.77-.65.59-1.37,1.15-2.14,1.66l-.74.05s.01.15.03.4c-5.11,3.13-12.55,4.69-22.28,4.69-8.08,0-17.73-1.08-28.92-3.23l.19-.98c27.11,5.22,45,4.1,53.19-3.33,6.81-6.18,9.66-15.59,7.55-19.57-2.73-5.15-4.99-12.65-5.16-17.06-.03-.85-.06-1.69-.08-2.56-.16-5.07-.34-10.82-1.87-20.1-1.03-6.22-2.18-12.04-3.67-12.5-.84-.26-2.24,1.17-4.01,2.98-.5.51-1.03,1.06-1.61,1.62-4.4,4.34-13.9,16.26-14,16.38l-.23.3-.35-.15c-4.06-1.72-27.71-.15-27.95-.13l-.29.02-.16-.25c-.07-.1-6.68-10.45-11.75-13.54-.83-.51-1.5-.98-2.09-1.4-1-.71-1.72-1.23-2.17-1.08-.93.29-2.06,3.44-3.99,8.98-8.9,25.58-2.07,45.47-2,45.67l-.76.27-.37-.72s-.03.02-.05.03c-1.15-3.9-5.8-22.48,2.24-45.58,2.36-6.79,3.25-9.17,4.63-9.61.91-.29,1.76.31,3.05,1.22.58.41,1.23.88,2.03,1.36,4.88,2.98,10.84,11.96,11.91,13.61,2.81-.18,22.92-1.42,27.74.1,1.48-1.84,9.8-12.18,13.86-16.19.57-.56,1.1-1.1,1.59-1.6,2.17-2.23,3.6-3.69,5.03-3.25,1.73.55,2.78,3.78,4.36,13.29,1.54,9.35,1.72,15.14,1.87,20.24.03.86.06,1.71.09,2.55.16,4.22,2.42,11.68,5.05,16.64Z"/>
            <path class="cls-1" d="M212.72,112.67c2.22,6.03,2.24,10.35.05,12.81-.34.38-.73.71-1.17.99-.07-.17-.15-.33-.22-.5l-.91.41c.08.18.16.37.24.55-1.91.84-4.48.9-7.51.18-5.41-1.29-6.84-3.7-9.7-8.51-.38-.65-.8-1.35-1.25-2.1-3.33-5.47-5.48-14.51-5.93-16.53h-.18c.06-.19.1-.3.11-.31l-.93-.37s-.1.25-.23.67l-19.51-.23c-.27.76-.98,4.02.99,14.72,1.44,7.81,1.1,12.26-1.11,14.43-1.65,1.62-4.21,1.93-8.54,1.04-3.82-.78-8.9-5.9-11.09-11.19-2.72-6.56-5.31-17.4-5.81-19.54h-.07c-7.65,0-29.35,14.79-38.09,22.78-7.7,7.05-11.52,21.45-15.21,35.38l-.68,2.58c-3.16,11.96-4.34,16.44-13.07,21.8-7.71,4.74-7.65,17.67-7.63,21.92,0,.55.01.97,0,1.22-.03.44.42,1.6.86,2.73,1.07,2.8,2.55,6.65,1.03,8.86-.75,1.09-2.13,1.64-4.09,1.64-10.4,0-13.07-15.3-13.94-20.32l-.28-1.6c-1.3-7.29-2.64-14.83,2.47-19.62,5.98-5.59,5.94-18.52,5.74-23-11.34,18.22-25.75,25.19-41.76,20.18-4.6-1.44-8.41-5.21-11.03-10.9-3.45-7.49-4.29-17.69-1.92-23.22,5.8-13.52,9.63-24.94,2.07-38.49-1.4-2.52-.94-7.47,1.75-10.1,1.44-1.39,4.72-3.22,10.56.23,12.91,7.63,8.81,27.66,7.25,33.62-1.03,3.92-2.43,7-3.66,9.72-2.27,5.01-4.23,9.34-3.1,16.89.34,2.26,2.04,3.49,3.41,4.13,3.45,1.6,8.86,1.31,12.05-.65,8.68-5.34,10.4-14.35,12.4-24.79,1.99-10.4,4.24-22.2,14.32-32.08,8.27-8.11,23.06-14.43,40.18-21.74,10.32-4.41,22.04-9.41,33.42-15.34.14.47.23.73.24.75l.18-.06.09.17c-11.43,5.96-23.18,10.98-33.53,15.4-17.04,7.27-31.75,13.56-39.88,21.53-9.85,9.67-12.08,21.3-14.04,31.56-1.96,10.22-3.8,19.88-12.86,25.45-3.5,2.15-9.21,2.46-12.99.7-2.28-1.05-3.65-2.74-3.98-4.88-1.18-7.85.84-12.3,3.18-17.45,1.27-2.82,2.6-5.73,3.6-9.56,1.52-5.79,5.51-25.23-6.79-32.51-3.96-2.34-7.19-2.47-9.35-.37-2.34,2.29-2.78,6.73-1.58,8.89,7.77,13.93,3.68,26.07-2.02,39.38-1.99,4.64-1.82,14.3,1.91,22.4,1.74,3.79,4.96,8.66,10.42,10.37,15.91,4.98,30.23-2.32,41.42-21.1l.78-1.31.15,1.52c.07.74,1.67,18.26-5.94,25.39-4.72,4.42-3.49,11.36-2.18,18.72l.29,1.59c.83,4.83,3.39,19.5,12.95,19.5,1.62,0,2.72-.4,3.27-1.2,1.22-1.79-.15-5.35-1.15-7.95-.55-1.44-.96-2.49-.92-3.14.02-.23,0-.63,0-1.16-.02-4.38-.09-17.74,8.1-22.77,8.39-5.15,9.46-9.2,12.63-21.2l.69-2.59c3.72-14.06,7.58-28.61,15.5-35.85,9.02-8.25,31.77-23.65,39.27-23.03l.37.03.08.36c.03.13,2.87,12.56,5.85,19.75,2.04,4.93,6.88,9.88,10.36,10.6,3.92.8,6.27.55,7.64-.78,1.92-1.89,2.18-6.19.83-13.54-2.41-13.06-.89-15.48-.71-15.71l.15-.2,22.1.26.08.39c.02.11,2.3,10.71,5.89,16.61.46.76.88,1.46,1.26,2.11,2.88,4.85,4.07,6.86,9.07,8.05,3.95.94,7,.47,8.59-1.32,1.9-2.14,1.82-6.22-.24-11.81-3.85-10.47-5.71-33.07-5.96-36.33.24-.14.48-.29.71-.45l.26-.02c.02.25,1.83,25.33,5.93,36.46Z"/>
            <path class="cls-1" d="M211.38,125.97c.07.17.15.33.22.5-.28.18-.57.34-.89.46-.08-.18-.16-.37-.24-.55l.91-.41Z"/>
            <path class="cls-1" d="M205.79,76.28l.74-.05c-.23.16-.47.31-.71.45-.02-.25-.03-.38-.03-.4Z"/>
            <path class="cls-1" d="M191.29,132.37c11.6,15.19,14.47,25.08,2.25,47.01-8.64,15.5-6.96,26.72-5.74,34.9.41,2.75.77,5.12.7,7.26v.12c-.35,9.87-.77,22.15-20.33,34.16-8.7,5.34-12.11,10.4-15.12,14.85-3.75,5.56-6.99,10.36-18.69,14.13-1.51.49-2.99.88-4.44,1.17-.94-.13-1.87-.28-2.79-.45v-.1c2.22-.29,4.54-.8,6.93-1.57,11.37-3.67,14.52-8.33,18.16-13.74,3.07-4.54,6.54-9.68,15.43-15.14,19.1-11.73,19.51-23.72,19.84-33.35v-.12c.08-2.05-.27-4.37-.68-7.07-1.24-8.33-2.95-19.73,5.86-35.54,11.94-21.43,9.14-31.09-2.18-45.92-10.79-14.12-6.52-29.64-5.4-33.01h1.05c-.85,2.4-5.75,18.14,5.15,32.41Z"/>
            <path class="cls-15" d="M190.49,132.97c11.32,14.83,14.12,24.49,2.18,45.92-8.81,15.81-7.1,27.21-5.86,35.54.41,2.7.76,5.02.69,7.07v.12c-.34,9.63-.75,21.62-19.85,33.35-8.89,5.46-12.36,10.6-15.43,15.14-3.64,5.41-6.79,10.07-18.16,13.74-2.39.77-4.71,1.28-6.94,1.57-16.5,2.13-28.33-7.76-31.49-11.95-3.33-4.41-12.61-13.19-19.82-19.48-8.81-7.69-11.75-16.41-12.08-35.88h-.67s0-.01,0-.01c1.96,0,3.34-.55,4.09-1.64,1.52-2.21.04-6.06-1.03-8.86-.44-1.13-.89-2.29-.86-2.73.02-.25,0-.67,0-1.22-.02-4.25-.08-17.18,7.63-21.92,8.73-5.36,9.91-9.84,13.07-21.8l.68-2.58c3.69-13.93,7.51-28.33,15.21-35.38,8.74-7.99,30.44-22.78,38.09-22.78h.07c.5,2.14,3.09,12.98,5.81,19.54,2.19,5.29,7.27,10.41,11.09,11.19,4.33.89,6.89.58,8.54-1.04,2.21-2.17,2.55-6.62,1.11-14.43-1.97-10.7-1.26-13.96-.99-14.72l19.51.23c-1.12,3.37-5.39,18.89,5.4,33.01ZM110.94,206.9c22.25-27.97,15.6-50.29,15.53-50.51l-.95.3c.07.22,6.56,22.02-15.36,49.58l.78.63Z"/>
            <path class="cls-1" d="M185.32,99.29l.93.37s-.05.12-.11.31h-1.05c.13-.43.22-.66.23-.68Z"/>
            <path class="cls-1" d="M133.04,60.99l.37.72-.18.06s-.1-.28-.24-.75c.02-.01.03-.02.05-.03Z"/>
            <path class="cls-1" d="M127.13,285.52c.92.17,1.85.32,2.79.45-1,.21-1.99.37-2.96.49l.17-.94Z"/>
            <path class="cls-1" d="M127.12,285.42v.1s-.16.94-.16.94c-1.6.21-3.15.3-4.65.3-14.35,0-24.33-8.52-27.48-12.68-3.29-4.36-12.5-13.08-19.67-19.33-9.07-7.92-12.09-16.82-12.43-36.63h1c.33,19.46,3.27,28.18,12.08,35.87,7.21,6.29,16.49,15.07,19.82,19.48,3.16,4.19,14.99,14.08,31.49,11.95Z"/>
            <path class="cls-1" d="M126.47,156.39c.07.22,6.72,22.54-15.53,50.51l-.78-.63c21.92-27.56,15.43-49.36,15.36-49.58l.95-.3Z"/>
          </g>
          <path class="cls-2" d="M126,158.07c-.64-4.72-4.99-7.7-5.23-.89s-3.83,24-9.96,33.7c-6.75,10.68-5.96,13.06-5.87,14.51.15,2.6,1.66,3.74,3.06,2.85s11.74-14.04,14.81-24.64,4.07-19.06,3.19-25.53Z"/>
          <path class="cls-2" d="M188.68,228.92c-9.96,22.34-19.48,22.89-29.62,33.83-2.1,2.26-4.38,4.53-6.7,6.72,1.85-3.13,3.26-5.74,2.36-5.07-2.04,1.53-10.47,8.94-22.21,10.72s-24.46-3.83-27.32-6.38c-4-3.57-12.75-17.29-21.45-22.98-8.6-5.62-9.19-17.62-9.19-17.62l-.46-42c7.05-2.65,9.87-7.69,12.46-12.3,1.53-2.72,7.16-26.2,9.53-32.85,5.28-14.81,14.13-19.74,17.7-22.81,2.6-2.22,16.04-9.74,23.22-13.69,1.15,4.42,3.88,14.04,7.17,18.97,1.53,2.3,7.66,5.53,12.09,6.89s-8.6-7.74-8.6-7.74l-3.23-10.21-2.94-10.36s.05-.02.05-.02l-.07-.06-.61-2.15-1.18.63-1.55-1.31-6.64,1.7-7.32,4.6-11.23,7.32-12.09,9.7-7.66,11.74-5.11,15.15-5.28,19.23-3.91,8.68-8.85,5.96s-1.42,1.86-1.26,3.01l-.36.31s-4.5,5.83-3.23,14.55c.35,2.39,2.16,15.09-1.02,20.34-1.7,2.81,2.98,22.62,2.98,22.89,0,1.28,13.79,15.49,13.79,15.49l22.13,21.36,24,5.36,10.9-4.57c-3.93,3.17-6.6,5.16-6.6,5.16,0,0,20.81-.64,25.91-2.04,5.11-1.4,8.43-17.25,19.28-26.94,18-16.09,12.13-29.23,12.13-29.23Z"/>
          <path class="cls-2" d="M186.38,99.73h-5.53s5.02,16.68,8.77,21.36,14.72,6.89,14.72,6.89l-8.09-5.79-7.74-13.36-2.13-9.11Z"/>
          <path class="cls-3" d="M4.98,99.47s6.13,6,7.53,16.98-7.4,24.13-7.66,29.23,1.53,25.66,18.64,28.47l-8.04-1.28-8.04-4.98-4.85-11.87-1.15-13.66,5.74-12.13,1.91-15.57-1.4-8.68-2.68-6.51Z"/>
          <path class="cls-3" d="M57.7,154.11s2.81,5.74,1.79,13.53-5.36,11.62-5.87,12.26-2.68,2.81-2.3,7.28,3.57,27.19,9.45,29.74l-8.94-9.32-3.83-22.47,3.32-8.43,5.11-6.89,1.28-15.7Z"/>
          <path class="cls-3" d="M140.42,97.18s4.99,2.17,7.1,9.9c2.1,7.73,6.44,21.02,10.65,22.78l-7.89-5.29-5.65-9.9-4.21-17.49Z"/>
          <path class="cls-3" d="M186.38,98.17s1.4-2.16,5.87,6.89,8.04,19.18,12.13,21.48c0,0-8.68-2.97-9.7-6.35s-8.3-22.02-8.3-22.02Z"/>
          <path class="cls-3" d="M153.51,78.47s25.4,3.89,33.57,3,16.09-4.09,17.23-5.23l-2.74,3.26s-16.98,8.3-36.51,4.98c-8.37-1.42-11.55-6-11.55-6Z"/>
          <path class="cls-3" d="M135.23,19.05s-2.98,24.77-.34,36.6c1.6,7.17.51,5.96-.17,6.3s-4.09-18.38-4.09-18.38l4.6-24.51Z"/>
          <path class="cls-3" d="M202.47,3.64c-.17.26-12.34,17.87-12.94,19.06s-3.66,1.19-4.77.94l11.57-14.72,6.13-5.28Z"/>
          <path class="cls-13" d="M178.64,134.11c-.68,4.34,2.11,12.8,1.36,20.51-.85,8.77-5.79,18.81-8.51,30.21-.75,3.12-1.76,35.64-3.83,41.36-2.98,8.26-6.64,21.11,2.38,13.45,1.63-1.38,9.28-10.98,8.6-25.62s4.43-33.53,7.32-47.32.85-22.93-.85-27.66c-2.02-5.64-5.79-9.28-6.47-4.94Z"/>
          <path class="cls-13" d="M111.4,144.24c-2.25-3.48-.34,14.64-.68,19.4s-4.09,16.68-2.89,20.77,7.15-17.87,7.32-22.98-1.87-14.3-3.74-17.19Z"/>
          <line class="cls-4" x1="114.91" y1="140.05" x2="134.19" y2="148.12"/>
          <line class="cls-4" x1="166.55" y1="176.15" x2="155.57" y2="182.54"/>
          <line class="cls-4" x1="92.12" y1="169.83" x2="102.3" y2="161.46"/>
          <line class="cls-4" x1="131.23" y1="224.41" x2="131.49" y2="210.62"/>
          <line class="cls-4" x1="127.23" y1="253.69" x2="139.23" y2="255.73"/>
          <line class="cls-4" x1="165.45" y1="140.24" x2="169.27" y2="151.47"/>
          <line class="cls-4" x1="109.02" y1="234.03" x2="96.76" y2="241.94"/>
          <line class="cls-5" x1="145.1" y1="239.9" x2="135.91" y2="245.01"/>
          <line class="cls-5" x1="86.04" y1="239.64" x2="94.21" y2="222.03"/>
          <line class="cls-5" x1="158.04" y1="149.94" x2="162.64" y2="162.45"/>
          <line class="cls-5" x1="175.23" y1="195.56" x2="162.98" y2="194.28"/>
          <line class="cls-5" x1="130.93" y1="138.36" x2="140.82" y2="128.84"/>
          <line class="cls-5" x1="87.13" y1="184.03" x2="98.1" y2="193.47"/>
          <line class="cls-5" x1="139.15" y1="215.22" x2="151.91" y2="215.98"/>
          <line class="cls-7" x1="108.43" y1="130.67" x2="124.52" y2="132.04"/>
          <line class="cls-7" x1="99.22" y1="214.03" x2="86.14" y2="206.79"/>
          <line class="cls-7" x1="135.32" y1="205.01" x2="149.87" y2="198.88"/>
          <line class="cls-7" x1="117.27" y1="258.54" x2="125.45" y2="243.73"/>
          <line class="cls-7" x1="142.72" y1="169.6" x2="150.89" y2="154.79"/>
          <line class="cls-7" x1="94.79" y1="178.66" x2="106.27" y2="175.35"/>
          <line class="cls-7" x1="176.25" y1="175.64" x2="172.17" y2="187.64"/>
          <path class="cls-11" d="M69.6,125.41c-3.69-7.71-7.31-16.5-10.48-26.33.21-.21.41-.42.62-.62,2.13-2.09,4.7-4.05,7.63-5.95.93,11.72,2.56,22.48,4.53,32.14.28,1.41-1.68,2.06-2.3.76Z"/>
          <path class="cls-11" d="M81.6,113.92c-3.41-7.13-6.76-15.18-9.75-24.11,2.47-1.39,5.12-2.75,7.94-4.11.96,9.91,2.41,19.1,4.11,27.46.28,1.41-1.68,2.06-2.3.76Z"/>
          <path class="cls-11" d="M93.6,104.73c-3.06-6.4-6.07-13.53-8.81-21.38,2.38-1.08,4.84-2.16,7.37-3.26.94,8.55,2.25,16.53,3.74,23.88.28,1.41-1.68,2.06-2.3.76Z"/>
          <path class="cls-11" d="M105.6,95.79c-2.64-5.52-5.24-11.58-7.67-18.18,2.18-.93,4.4-1.88,6.66-2.84.89,7.2,2.03,13.96,3.31,20.26.28,1.41-1.68,2.06-2.3.76Z"/>
          <path class="cls-11" d="M182.63,22.22c-.07,3.06-.21,6.02-.39,8.87-.1,1.44-2.16,1.57-2.42.15-.55-3.03-1.17-6.14-1.87-9.33,1.81.05,3.42.15,4.68.31Z"/>
          <path class="cls-11" d="M173.03,21.88c.01,4.99-.16,9.73-.45,14.2-.09,1.44-2.16,1.56-2.41.15-.83-4.55-1.82-9.29-3-14.21,1.91-.07,3.91-.12,5.86-.14Z"/>
          <path class="cls-11" d="M163.31,22.17c-.07,3.08-.21,6.06-.39,8.92-.09,1.44-2.15,1.57-2.41.15-.53-2.87-1.11-5.81-1.77-8.83,1.17-.07,2.76-.16,4.57-.24Z"/>
          <path class="cls-10" d="M211.53,127.94c3.89,8.74,6.2,17.71,6.52,26.24l-1.02,48c-.68,43.53-38,86.64-79.83,86.64h0c-3.26-.11-6.45-.46-9.55-1.05"/>
          <path class="cls-9" d="M185.87,101.39s-7.06,15.45,5.02,31.28,13.79,25.7,2.21,46.47-4.81,33.88-5.11,42.38c-.34,9.87-.68,21.96-20.09,33.87s-12.6,22.13-33.7,28.94-35.83-6.38-38.98-10.55c-3.58-4.74-13.48-13.94-19.74-19.4-8.68-7.57-12.09-15.19-12.43-35.28"/>
          <path class="cls-8" d="M133.27,61.43c-29.87,15.57-60.26,24-73.53,37.02-19.82,19.43-8.98,45.96-26.81,56.94-4.98,3.06-15.28,2.36-16.21-3.83-1.79-11.87,3.87-15.79,6.77-26.81,2.04-7.79,4.85-26.04-7.02-33.06-10.96-6.48-13.86,5.17-11.62,9.19,7.4,13.28,4.09,24.64-2.04,38.94-3.56,8.31,0,29.49,12.64,33.45,8.28,2.59,26.17,5.23,42-21.32,0,0,1.74,17.94-5.79,24.98-5.28,4.94-3.4,12.94-2.04,20.77,1.24,7.12,4.16,19.91,13.45,19.91,8.51,0,1.57-10.6,1.7-12.77s-1.06-18.04,7.87-23.53,9.8-10,13.28-23.11c3.7-13.96,7.62-29.28,15.62-36.6,8.75-8,31.47-23.51,38.89-22.89,0,0,2.84,12.51,5.87,19.83,2.04,4.94,6.95,10.12,10.72,10.89,7.91,1.62,11.74-.34,9.06-14.89-2.43-13.22-.81-15.32-.81-15.32l21.45.26s2.28,10.72,5.96,16.77,4.73,8.97,10.64,10.38c7.49,1.79,13.65-1,8.94-13.79-4.17-11.32-5.96-36.6-5.96-36.6"/>
          <path class="cls-8" d="M133.7,61.6s-7.06-19.96,2-46c4.31-12.39,3.74-9.96,8.98-6.77s11.91,13.7,11.91,13.7c0,0,23.96-1.62,28.17.17,0,0,9.56-12.01,14.04-16.43,5.96-5.87,7.23-9.36,10.13,8.17,1.79,10.86,1.73,16.79,1.96,22.72.17,4.51,2.57,12.05,5.11,16.85,2.3,4.34-.77,13.91-7.66,20.17-11.65,10.57-39.7,6.13-53.62,3.45"/>
          <path class="cls-6" d="M126,156.54s6.89,21.96-15.45,50.04"/>
          <g>
            <path class="cls-12" d="M190.94,43.3c.38,4.75-.59,8.71-2.16,8.83-1.57.13-3.15-3.63-3.52-8.39-.37-4.75.59-8.71,2.16-8.83,1.57-.13,3.15,3.63,3.52,8.39Z"/>
            <path class="cls-12" d="M164.39,44.49c.38,4.75-.59,8.71-2.16,8.83-1.57.13-3.15-3.63-3.52-8.38-.38-4.76.59-8.72,2.16-8.84s3.15,3.63,3.52,8.39Z"/>
          </g>
        </g>
      </g>
    </g>
  </g>
</svg>