<?xml version="1.0" encoding="UTF-8"?>
<svg xmlns="http://www.w3.org/2000/svg" viewBox="0 0 335.76 294.7">
  <defs>
    <style>
      .cls-1, .cls-2, .cls-3 {
        stroke-width: 5px;
      }

      .cls-1, .cls-2, .cls-3, .cls-4, .cls-5 {
        fill: none;
        stroke-linecap: round;
        stroke-miterlimit: 10;
      }

      .cls-1, .cls-4 {
        stroke: #5e4b37;
      }

      .cls-6 {
        opacity: .18;
      }

      .cls-6, .cls-7, .cls-8 {
        fill: #231f20;
      }

      .cls-2 {
        stroke: #4f342a;
      }

      .cls-9 {
        fill: #f6d3af;
      }

      .cls-10 {
        fill: #b85c27;
      }

      .cls-11 {
        fill: #4f342a;
      }

      .cls-3 {
        stroke: #b85c27;
      }

      .cls-7 {
        opacity: .51;
      }

      .cls-7, .cls-8 {
        mix-blend-mode: overlay;
      }

      .cls-4 {
        stroke-width: 3px;
      }

      .cls-12 {
        fill: #f1f2f2;
      }

      .cls-13 {
        isolation: isolate;
      }

      .cls-14 {
        fill: #5e4b37;
      }

      .cls-15 {
        fill: #5e4b37;
      }

      .cls-16 {
        fill: #915f4d;
      }

      .cls-5 {
        stroke: #231f20;
        stroke-width: 2px;
      }

      .cls-17 {
        fill: #fff;
        opacity: .74;
      }

      .cls-18 {
        fill: #e8aa68;
      }

      .cls-8 {
        opacity: .75;
      }

      .cls-19 {
        fill: #b85c27;
      }
    </style>
  </defs>
  <g class="cls-13">
    <g id="Layer_2" data-name="Layer 2">
      <g id="Line_art" data-name="Line art">
        <g>
          <g>
            <g>
              <path class="cls-9" d="M216.24,99.65c.97-.32,1.99-.61,3.07-.89,14.04-3.57,88.73-21.83,91.53-22.08.17-.02.32-.04.45-.08,2.16-.46.94-2.25,10.79,9.27,10.47,12.26,14.59,24.27,10.85,44.68-3.96,21.58-8.68,30.51-14.55,39.19l-.44.15c-7.92-4.25-31.59-19.38-39.27-26.19-8.93-7.91-19.53-16.47-40.97-18-15.18-1.08-43.94,8.41-59.46,14.05l-.03-.07s20.17-28.4,21.44-29.17c1.18-.71,4.97-7.07,16.59-10.86Z"/>
              <path class="cls-9" d="M184.74,285.68c3.25-11.78,9.13-54.63,2.66-79.94-6.77-26.42-14.56-32.29-20.05-36-5.31-3.58-24.17-4.78-30.45-3.92-.2.03-.39.06-.56.09l6.12-5.87h0c1.55.3,3,.39,3.75.34,2.88-.2,12.17-1.02,19.23-13.02.69-1.17,1.37-2.4,2.05-3.69l.18.09s4.15-1.68,10.57-4.01c15.52-5.64,44.28-15.13,59.46-14.05,21.44,1.53,32.04,10.09,40.97,18,7.68,6.81,31.35,21.94,39.27,26.19,1.29.7,2.17,1.1,2.48,1.13,2.43.23-1.22,14.69-3.45,21.83-12.25,39.32-30.13,68.3-30.13,68.3,0,0-4.08,9.19-16.46,13.53-6.9,2.42-38.26,9.05-61.03,12.25-14.27,2.02-25.26.87-25.02.13.13-.4.27-.86.41-1.38Z"/>
              <path class="cls-9" d="M278.8,34.05c.74-.5,1.15-.77,1.15-.77,0,0,1.66-2.94,11.87,6,10.22,8.93,16.47,17.87,18.51,30.25.73,4.42.9,6.77.9,6.77l.06.3c-.13.04-.28.06-.45.08-2.8.25-77.49,18.51-91.53,22.08-1.08.28-2.1.57-3.07.89-.15-1.87-1.38-22.03,11.75-31.27.11-.08.23-.16.35-.25,12.61-8.84,44.05-29.82,50.46-34.08Z"/>
              <path class="cls-9" d="M278.8,34.05c-6.41,4.26-37.85,25.24-50.46,34.08l-.09-.13s3.7-38.68-1.02-51.32c-4.2-11.24-2.3-16.6,6.64-13.15,2.02.78,32.52,12.35,44.93,30.52Z"/>
              <path class="cls-9" d="M187.4,205.74c6.47,25.31.59,68.16-2.66,79.94-1.35.24-16.35,2.93-39.47,5.85-24.26,3.06-54.72-5.09-67.92-12.77-14.04-8.17-10.66-7-9.19-8.04.13-.09.3-.21.53-.36,3.63-2.43,19.72-13.11,41.35-42.91,21.69-29.89,26.43-57.74,26.89-60.76.03-.18.04-.27.04-.27l-.07-.6c6.28-.86,25.14.34,30.45,3.92,5.49,3.71,13.28,9.58,20.05,36Z"/>
              <path class="cls-12" d="M111.42,108.46l.23-.08s2.98-6.47,4.6-8.59c1.62-2.13,9.96-13.2,22.89-18.13,7.4-2.82,12.85-3.34,16.16-3.26v-.57c1.71-8.43,1.71-12.77-1.09-19.15-3.73-8.47-6.13-10.98-16-14.04-8.66-2.69-16.77,1.19-20.09,4.25-2.34,2.16-5.36,8.51-8.25,10.56-2.9,2.04-10.71,2.58-13.28-2.39-2.64-5.1,3.84-13.49,6.04-15.91,10.13-11.15,24.17-14.04,38.38-10.64,14.22,3.4,21.37,9.11,26.73,17.96,7.95,13.12,4.42,34.12,5.02,34.29,2.98.86,4.32,2.86,5.28,4.43,2.63,4.34,3.57,14.21,1.61,23.49-2.07,9.83-6.85,22.94-12.16,32.99-.68,1.29-1.36,2.52-2.05,3.69-7.06,12-16.35,12.82-19.23,13.02-.75.05-2.2-.04-3.75-.35-3.57-.73-7.61-2.66-4.34-6.88,4.53-5.85,13.46-20.73,14.01-21.65-3.45,4.87-26.7,14.51-29.41,16.2-2.73,1.7-4.77,3.23-11.83,9.28-3.26,2.78-15.32,16.51-17.54,18.72-2.21,2.22-4.44,3.15-6.55,3.75-.34.1-.71.18-1.11.26-1.93.13-4.11.26-6.55.37-.32.01-.65.03-.98.03-2.52-.13-4.8-.53-5.91-1.18-2.47-1.44-.85-4.17-.85-4.17l8.34-13.95-10.47-.26c-.85,1.36-10.64,10.81-14.13,13.02-2.86,1.82-8.68,2.39-10.89,1.96-.26-.05-.56-.12-.89-.21-2.28-.64-5.85-2.3-7.2-4.98-1.53-3.06,2.81-6.64,2.81-6.64l17.73-15.1c-3.47-2.84-4.7-7.22-5.09-11.03-.51-4.93,3.36-11.74,4.21-13.78.85-2.05-2.68-17.49-1.91-21.92.44-2.54.38-3.28,4.98-1.57,6.14,2.27,13.79,9.07,14.98,8.85,1.57-.29,12.51-.51,15.48-.51,1.28,0,6.63-9.8,7.71-11.66,1.1-1.92,3.61-5.66,4.29-5.83.69-.17,2.41,1.33,4,3.87,2.77,4.43,4.72,9.14,6.07,13.44Z"/>
              <path class="cls-9" d="M136.84,166.68h.09c-.46,3.03-5.2,30.88-26.89,60.77-21.63,29.8-37.72,40.48-41.35,42.91l-.02-.02s-7.72-.97-22.97-9.45c-14.94-8.3-32.37-36.33-29.88-36.76.57-.1,1.16-.1,2.05-.24,3.68-.6,12.48-3.63,46.46-26.06,11.19-7.39,23.98-14.29,34.16-19.38,4.85-2.43,9.1-4.44,12.31-5.9,4.79-2.18,26.04-5.87,26.04-5.87Z"/>
              <path class="cls-9" d="M98.42,178.3l.07.15c-10.18,5.09-22.97,11.99-34.16,19.38-33.98,22.43-42.78,25.46-46.46,26.06v-.02s-12.44-14.82-14.05-28.21c-1.66-13.79,3.83-34.6,10.98-35.11,6.74-.48,11.32,10.05,28.53,14.88,1.04.3,2.12.57,3.26.82,8.19,1.79,21.46,4.16,31.57,3.86,2.59.14,5.42,0,7.53-.4,9.04-.64,12.73-1.41,12.73-1.41Z"/>
            </g>
            <g>
              <path class="cls-5" d="M114.5,123.91s-.39-6.93-3.08-15.45c-1.35-4.3-3.3-9.01-6.07-13.44-1.59-2.54-3.31-4.04-4-3.87-.68.17-3.19,3.91-4.29,5.83-1.08,1.86-6.43,11.66-7.71,11.66-2.97,0-13.91.22-15.48.51-1.19.22-8.84-6.58-14.98-8.85-4.6-1.71-4.54-.97-4.98,1.57-.77,4.43,2.76,19.87,1.91,21.92-.85,2.04-4.72,8.85-4.21,13.78.39,3.81,1.62,8.19,5.09,11.03,1.03.85,2.26,1.56,3.72,2.08,8.38,2.96,23.32,3.4,31.32.51s14.13-9.02,15.83-12.77"/>
              <path class="cls-5" d="M152.16,131.45s-.02.03-.03.05c-.55.92-9.48,15.8-14.01,21.65-3.27,4.22.77,6.15,4.34,6.88,1.55.31,3,.4,3.75.35,2.88-.2,12.17-1.02,19.23-13.02.69-1.17,1.37-2.4,2.05-3.69,5.31-10.05,10.09-23.16,12.16-32.99,1.96-9.28,1.02-19.15-1.61-23.49-.96-1.57-2.3-3.57-5.28-4.43-.6-.17,2.93-21.17-5.02-34.29-5.36-8.85-12.51-14.56-26.73-17.96-14.21-3.4-28.25-.51-38.38,10.64-2.2,2.42-8.68,10.81-6.04,15.91,2.57,4.97,10.38,4.43,13.28,2.39,2.89-2.05,5.91-8.4,8.25-10.56,3.32-3.06,11.43-6.94,20.09-4.25,9.87,3.06,12.27,5.57,16,14.04,2.8,6.38,2.8,10.72,1.1,19.15"/>
              <path class="cls-5" d="M56.76,148.55l-.06.05-17.73,15.1s-4.34,3.58-2.81,6.64c1.35,2.68,4.92,4.34,7.2,4.98.33.09.63.16.89.21,2.21.43,8.03-.14,10.89-1.96,3.49-2.21,13.28-11.66,14.13-13.02l10.47.26-8.34,13.95s-1.62,2.73.85,4.17c1.11.65,3.39,1.05,5.91,1.18,2.59.14,5.42,0,7.53-.4.4-.08.77-.16,1.11-.26,2.11-.6,4.34-1.53,6.55-3.75,2.22-2.21,14.28-15.94,17.54-18.72,7.06-6.05,9.1-7.58,11.83-9.28,2.71-1.69,25.96-11.33,29.41-16.2"/>
              <path class="cls-5" d="M159.06,78.85s-1.28-.39-3.76-.45c-3.31-.08-8.76.44-16.16,3.26-12.93,4.93-21.27,16-22.89,18.13-1.62,2.12-4.6,8.59-4.6,8.59"/>
              <line class="cls-5" x1="136.34" y1="165.91" x2="142.46" y2="160.04"/>
              <path class="cls-5" d="M167.67,143.76s4.15-1.68,10.57-4.01c15.52-5.64,44.28-15.13,59.46-14.05,21.44,1.53,32.04,10.09,40.97,18,7.68,6.81,31.35,21.94,39.27,26.19,1.29.7,2.17,1.1,2.48,1.13,2.43.23-1.22,14.69-3.45,21.83-12.25,39.32-30.13,68.3-30.13,68.3,0,0-4.08,9.19-16.46,13.53-6.9,2.42-38.26,9.05-61.03,12.25-14.27,2.02-25.26.87-25.02.13.13-.4.27-.86.41-1.38,3.25-11.78,9.13-54.63,2.66-79.94-6.77-26.42-14.56-32.29-20.05-36-5.31-3.58-24.17-4.78-30.45-3.92-.2.03-.39.06-.56.09h-.01"/>
              <path class="cls-5" d="M178.21,139.68s20.17-28.4,21.44-29.17c1.18-.71,4.97-7.07,16.59-10.86.97-.32,1.99-.61,3.07-.89,14.04-3.57,88.73-21.83,91.53-22.08.17-.02.32-.04.45-.08,2.16-.46.94-2.25,10.79,9.27,10.47,12.26,14.59,24.27,10.85,44.68-3.96,21.58-8.68,30.51-14.55,39.19"/>
              <path class="cls-5" d="M216.25,99.79s0-.05-.01-.14c-.15-1.87-1.38-22.03,11.75-31.27.11-.08.23-.16.35-.25,12.61-8.84,44.05-29.82,50.46-34.08.74-.5,1.15-.77,1.15-.77,0,0,1.66-2.94,11.87,6,10.22,8.93,16.47,17.87,18.51,30.25.73,4.42.9,6.77.9,6.77"/>
              <path class="cls-5" d="M279.06,34.42c-.08-.12-.17-.25-.26-.37-12.41-18.17-42.91-29.74-44.93-30.52-8.94-3.45-10.84,1.91-6.64,13.15,4.72,12.64,1.02,51.32,1.02,51.32"/>
              <path class="cls-5" d="M136.97,166.42s0,.09-.04.27c-.46,3.02-5.2,30.87-26.89,60.76-21.63,29.8-37.72,40.48-41.35,42.91-.23.15-.4.27-.53.36-1.47,1.04-4.85-.13,9.19,8.04,13.2,7.68,43.66,15.83,67.92,12.77,23.12-2.92,38.12-5.61,39.47-5.85.07-.01.1-.02.1-.02"/>
              <path class="cls-5" d="M136.84,166.68s-21.25,3.69-26.04,5.87c-3.21,1.46-7.46,3.47-12.31,5.9-10.18,5.09-22.97,11.99-34.16,19.38-33.98,22.43-42.78,25.46-46.46,26.06-.89.14-1.48.14-2.05.24-2.49.43,14.94,28.46,29.88,36.76,15.25,8.48,22.97,9.45,22.97,9.45"/>
              <path class="cls-5" d="M98.42,178.3s-3.69.77-12.73,1.41c-1.93.13-4.11.26-6.55.37-.32.01-.65.03-.98.03-10.11.3-23.38-2.07-31.57-3.86-1.14-.25-2.22-.52-3.26-.82-17.21-4.83-21.79-15.36-28.53-14.88-7.15.51-12.64,21.32-10.98,35.11,1.61,13.39,14.05,28.21,14.05,28.21"/>
              <path class="cls-5" d="M82.89,137.74s6.98-5.02,14.12-4.51"/>
              <path class="cls-5" d="M71.82,138.59s-4.25-2.55-13.02-1.61"/>
            </g>
          </g>
          <path class="cls-18" d="M163.14,149.32l41.36-10.47s13.53-3.66,20.17-4.6,17.62-.94,25.02,3.15,54.3,37.45,58.72,39.23,3.57,1.79,3.83,4.34-31.15,71.74-31.15,71.74c0,0-4.34,12.26-16.09,15.06s-47.74,10.98-49.28,10.72-18.38,1.02-18.38,1.02c0,0-3.06,1.02-1.53-6.13s3.57-49.28,3.57-49.28c0,0-6.21-42.81-19.49-53.02s-31.4-10.43-28.43-11.91c4.77-2.38,11.66-9.87,11.66-9.87Z"/>
          <path class="cls-18" d="M192.5,134.26l15.83-20.17s4.85-5.62,18.89-8.94,77.11-18.38,79.66-19.15,6.64,0,6.64,0c0,0,13.02,11.74,10.47,34.21s-9.91,31.69-13.79,37.79c-3.57,5.62-6.13,4.6-6.13,4.6,0,0-11.49-6.64-32.17-24.51s-52.09-13.02-79.4-3.83Z"/>
          <path class="cls-18" d="M237.81,11.76c-2.72-.87-5.32,1.58-4.62,4.35,1.14,4.5,2.34,11.02,2.2,18.06-.26,13.02-2.3,29.36-2.3,29.36l39.57-27.57s-8.14-15.63-34.86-24.2Z"/>
          <path class="cls-18" d="M218.54,98.51s-4.85-16.34,14.81-27.83,42.89-29.87,42.89-29.87c0,0,5.36-7.15,13.79,3.06s16.09,21.45,15.83,33.96l-87.32,20.68Z"/>
          <path class="cls-18" d="M147.16,170.35s11.63,1.89,12.63,2.23c6.67,2.28,10.68,8.49,13.82,14.28,7.4,13.66,12.05,34.34,6.77,65.87-3.57,21.32-7.28,29.74-15.96,32.81-.76.27-32.94,4.47-54.64-.13s-30-8.68-30-8.68c0,0-4.21-1.53-2.17-5.11s29.72-27.44,35.74-35.23c11.23-14.55,24-43.91,24.77-54.64.27-3.83,1.17-6.42,2.2-8.18,1.39-2.36,4.13-3.58,6.84-3.23Z"/>
          <path class="cls-18" d="M129.86,172.81s-16.51,1.87-46.13,19.06-56.51,34.72-57.53,34.89-4.43,1.19-3.23,3.91,21.08,31.98,37.28,32.17c14.47.17,51.23-50.21,56.34-57.19s11.74-22.64,12.43-24.51,3.06-7.49.85-8.34Z"/>
          <path class="cls-18" d="M66.54,186.6c-.17,3.23-44.09,32.85-49.19,30.13-3.88-2.07-11.06-19.4-9.53-31.49s4.94-17.7,4.94-17.7c0,0,3.06-2.38,8.68,2.55s22.47,12.09,29.62,12.94,15.66.34,15.49,3.57Z"/>
          <path class="cls-19" d="M110.83,106.26c-.45.93-.68,1.96-.66,2.99.04,2.37,1.33,3.79,2.54,5.67.53.82,1.21,1.39,1.96,1.77.54.66,1.18,1.23,1.91,1.67,4.7,2.84,8.66-2.59,6.84-6.84-.06-.15-.07-.35-.04-.57.06-.18.11-.37.15-.55,3.05-1.77,4.27-6.53.27-8.54-.14-.07-.28-.12-.42-.18.28-1.46.07-2.95-.89-4.25-.89-1.21-2.08-1.99-3.33-2.28l-8.33,11.11Z"/>
          <path class="cls-14" d="M115.06,99.72c.42,2.86,4.91,3.99,6.69,1.77.24-.3.47-.61.7-.92.24,1.05.42,2.11.55,3.2.26,2.25,1.88,3.54,3.6,3.8-.28.76-.62,1.52-1.03,2.27-2.48,4.52,4.43,8.56,6.91,4.04,4.43-8.07,4.03-18.09-1.67-25.46-.62-.8-1.43-1.33-2.29-1.61l-13.45,12.91Z"/>
          <path class="cls-19" d="M144.51,102.49c-.6-.93-1.61-1.73-2.75-2.18-.09-.13-.17-.27-.26-.39-1.9-2.46-5.85-2.77-8.02-.45-1,1.07-1.49,2.31-1.56,3.6-.24.46-.46.95-.64,1.47-.44,1.22-.16,2.6.49,3.73-.11,1.87.84,3.87,2.47,4.73,2.55,1.34,5.25.51,6.84-1.79.11-.17.23-.34.34-.52.14-.16.31-.31.44-.45.22-.24.45-.47.68-.69.2-.18,1.11-.94.18-.21,1.08-.83,1.92-1.61,2.3-2.99.33-1.2.18-2.79-.5-3.85Z"/>
          <path class="cls-14" d="M73.87,137.31c-.14-.37-.31-.74-.51-1.07-.83-1.34-2.31-2.21-3.9-2.21-.65,0-1.29.16-1.87.43-.96-.17-1.95-.05-2.67.48-1.41,1.04-2.6,2.55-2.42,4.43.2,2.08,1.69,4.1,4,4,.16,0,.33-.03.49-.06.57.13,1.16.17,1.77.08.02,0,.03.02.05.03,1.88.9,4.41.58,5.47-1.43.75-1.42.66-3.43-.43-4.68Z"/>
          <path class="cls-11" d="M131.23,115.34c.28-.38.48-.81.55-1.3.25-1.63.35-3.11-.54-4.57-.78-1.3-2.18-2.18-3.69-2.34-.34-.25-.68-.49-1.04-.71-1.63-1.04-3.87-.51-5.09.91-2.11.51-3.91,2.44-3,4.86,1.65,4.38,4,8.77,8.93,9.96,4.27,1.03,6.44-4.44,3.86-6.81Z"/>
          <path class="cls-16" d="M82.41,110.73c-.2-.14-.42-.25-.63-.34-.24-.36-.52-.69-.9-.95-.72-.5-1.79-.71-2.6-.4-1.6.61-3.05,2.83-2.36,4.92.15.45.28.9.37,1.37.03.16.04.4.09.57,0,.02,0,.03,0,.05.11,1.63.77,3,2.08,3.66.4.2.79.29,1.17.3.3.24.63.44.99.54,1.78.48,3.66-.63,4.16-2.79.62-2.68-.36-5.49-2.37-6.92Z"/>
          <path class="cls-11" d="M97.58,124.52c-2.21,0-3.86,1.79-3.99,3.92-.34.11-.67.25-.98.44-.49-.08-.98-.1-1.48-.02-1.28.19-2.37.88-3.13,1.92-.38.52-.66,1.06-.87,1.68-.03.11-.07.22-.1.33-.12.46-.12.45,0-.03-1.25,1.77-.32,4.45,1.43,5.47,1.37.8,2.84.65,4.04-.09.67.1,1.35.07,2-.1.14-.04.27-.09.4-.14.84.62,1.92.94,2.96.78,2-.3,3.39-1.89,3.47-3.93l.25-6.21c.09-2.16-1.9-4-4-4Z"/>
          <path class="cls-19" d="M71.35,108.6c.17,1.21.18,1.97.35,3.18.27,1.89,2.44,3.38,4.16,3.58.91.11,1.79-.02,2.59-.35.18.19.38.37.59.53.3.23.66.42,1.03.58.63,1.32,1.82,2.4,3.22,2.79,2.72.75,5.3-.92,6.15-3.49.76-2.3.75-4.77.09-7.09l-18.18.28Z"/>
          <path class="cls-11" d="M77.56,108.77c-.09.72-.34.72-.16,1.46.37,1.54,1.66,3,3.21,3.38.51.12.99.15,1.45.12,1.02.97,2.55,1.45,3.87,1.02,2.15-.7,3.28-2.73,2.79-4.92-.23-1.03-.31-.42-.54-1.45l-10.64.38Z"/>
          <path class="cls-14" d="M156.01,86.96c-.74.05-1.47.29-2.11.7-1.94-2.28-5.78-1.87-6.9,1.4-.92,2.68-1.84,5.37-2.76,8.05-1.67,4.88,6.05,6.98,7.71,2.13.12-.34.24-.69.35-1.03.09.03.18.06.27.08,1.44.34,2.58-.03,3.52-.75,1.05.66,2.33.84,3.96.06,3.29-1.57,3.86-6.53,3.86-9.76-.01-4.84-7.07-5.13-7.92-.87Z"/>
          <path class="cls-19" d="M139.05,81.18c-.11,1.15.21,2.34.86,3.38-.03.04-.06.08-.1.15-.27.4-.37,1.59-.47,2.02-.33,1.39-.65,2.78-.98,4.17-1.1,4.7,4.77,8.6,8.36,4.86,1.41-1.46,2.57-3.08,3.45-4.9,1.33,2.58,5.95,3.16,7.76.83,2.41-3.12,3.21-6.04,2.58-9.94-.41-2.55-3.47-4.02-5.84-3.56l-15.62,2.99Z"/>
          <path class="cls-11" d="M125.64,88.63c-.64.67.39,1.81.59,2.72.83,3.86,5.2,4.04,7.24,1.37.22.68.47,1.35.74,2.01-.94,3.67,2.74,6.68,6.56,7.09,2.06.22,4.26-1.54,4.31-3.66.12-4.69.23-9.38.35-14.07.05-1.83-.95-3.1-2.24-3.73,0,0-15.82,6.47-17.55,8.27Z"/>
          <path class="cls-19" d="M54.8,123.18c1.27.03,2.22.54,2.86,1.29,2.01,1.22,2.98,3.98,3,6.3.21.13.42.29.63.45.13.06.26.11.37.2.3.21.57.45.83.7.09.05.17.09.26.14,4.18,2.83,1.84,8.77-2.52,9.79-2.4.56-4.68-.32-6.16-1.97-.25-.08-.5-.18-.76-.3-.93.18-1.87.15-2.79-.11,0,0-.44-6.07.87-8.68s3.4-7.8,3.4-7.8Z"/>
          <path class="cls-10" d="M155.38,72.11c-.62.75,2.52.03,3.68-.31,1.38-.4,2.54-1.32,3.06-2.32.21-.4.3-.86.31-1.31.51-.78.69-1.7.48-2.49-.12-.44-.34-.86-.66-1.26.03-.38,0-.77-.12-1.16-.17-.6-.51-1.17-.96-1.68.02-.3,0-.6-.09-.9-.63-2.36-3.9-4.16-7.2-3.83,0,0,2.58,13.94,1.5,15.26Z"/>
          <path class="cls-10" d="M127.76,43.46c-2.21.45-.92-4.16.48-6.07,1.38-1.88,3.61-1.77,5.19-.44.71-.19,1.44-.15,2.11.19.26-.08.54-.12.82-.14,2.29-.13,3.81,2.41,4,5.02.02.32.05.63.07.95.04.57-.12,1.82-.26,2.32,0,0-8.47-2.64-12.4-1.84Z"/>
          <path class="cls-11" d="M107.91,46.95c-3.08-2.46-3.69-2.74-7.32-4.27-.4-.17-3.19,2.98-3.43,4.83-1.53,2.33-1.7,2.98-2.15,5.89-.51.83.19,1.81.47,2.79.87,3.09,2.22,3.43,5.36,4.21,3.18.79,5.04.55,6.61-.32,2.74-.27,5.15-2.63,5.82-5.49.87-3.72-2.81-5.61-5.36-7.65Z"/>
          <path class="cls-15" d="M137.43,44.74c1.11-1.76,2.39-2.77,4.32-3.43,1.98-.68,4.26.61,5.07,2.53.34,0,.68,0,1.02,0,1.75-.04,3.01.92,3.66,2.26,1.73.75,2.81,2.51,2.61,4.4.09.28.16.56.2.86,3.25,1.66,3.17,7.18-.29,8.15,0,0-2.12-6.3-5.91-10.24-1.77-1.84-10.69-4.52-10.69-4.52Z"/>
          <path class="cls-15" d="M113.44,53.59c-.28-.26-.53-.58-.75-.97-.52-.9-1.04-1.8-1.56-2.7-1.08-1.86-.3-4.23,1.3-5.38.02-.13.05-.26.08-.39.63-2.49,3.7-3.7,5.88-2.39.51.3,1.01.62,1.52.94.16-.14.34-.26.52-.37.37-.81.97-1.52,1.67-1.92,1.67-.98,3.42-.48,4.85.63.49.38.98.76,1.48,1.15.58.45.92,1.08,1.07,1.78,0,0-9.01,1.96-9.77,2.55s-6.27,7.08-6.27,7.08Z"/>
          <path class="cls-11" d="M147.98,50.14c.61.37,2.91,4.31,2.91,4.31.24-.38.44-.83.58-1.26.31-.94.21-1.94-.16-2.83.11-.88-.03-1.78-.49-2.5-.55-.85-1.37-1.61-2.39-1.84-1.1-.25-2.06-.08-3.08.4-.39.18-.77.36-1.16.54-.34.16-.66.43-.94.75,0,0,4.13,2.04,4.73,2.41Z"/>
          <path class="cls-11" d="M122.88,45.71c-1.3.63.88-2.84,2.16-3.54.77-.86,1.95-1.37,3.07-1.42,1.3-.06,2.58.71,3.32,1.78.55.52.98,1.17,1.2,1.88,0,0-7.2.07-9.75,1.3Z"/>
          <path class="cls-11" d="M154.46,78.45c.98,0,2.43-.31,3.1-1.04.61-.66,1.06-1.51,1.14-2.42.11-.27.22-.53.34-.8.17-.53.19-1.06.07-1.6,0-.36-.09-.7-.27-1.01-.16-.5-.44-.93-.83-1.29-.51-.47-1.42-.89-2.08-1.11-.53-.17-.75-.11-1.28,0l-.19,9.25Z"/>
          <path class="cls-7" d="M238.97,6.51s22.13,37.11,15.32,42.89l23.66-15.49s-15.66-19.57-38.98-27.4Z"/>
          <path class="cls-7" d="M281.18,33.24s6.47,46.3-1.02,50.38l29.96-6.98s-3.23-18.89-8.34-25.7c-5.42-7.22-20.6-17.7-20.6-17.7Z"/>
          <path class="cls-7" d="M312.33,76.3s-13.96,3.06-13.96,3.06c0,0,14.68,27.85,13.79,35.91-3.06,27.57-17.19,41.87-17.19,41.87l22.47,13.11s14.13-26.55,16.17-49.7-21.28-44.26-21.28-44.26Z"/>
          <path class="cls-7" d="M297.35,156.98s5.62,5.11-1.36,21.79-13.45,28.26-18.21,39.66c-3.9,9.33-8.51,20.26-20.09,24.85-10.78,4.28-45.96,11.4-58.55,7.83-4.17-1.18-9.7-10.89-9.7-10.89l-5.45,47.32s27.82,1.2,79.83-11.23c23.49-5.62,27.29-26.15,34.89-39.83,10.92-19.65,19.32-50.14,21.79-61.11.57-2.53-1.69-4.25-3.96-5.51l-19.19-12.87Z"/>
          <path class="cls-7" d="M178.88,183.2s-.34,46.98-6.13,68.43c-4.81,17.82-8.85,20.6-35.91,22.98-25.24,2.22-56-14.3-56-14.3,0,0-14.3,10.04-14.64,11.57,9.7,6.3,40.68,31.32,116.94,13.96,0,0,18.21-56-4.26-102.64Z"/>
          <path class="cls-7" d="M134.8,170.26s-6.64,12.17-14.81,23.74c-12.52,17.73-35.02,36.23-48,44.94,0,0-9.96,2.55-21.19-7.66-16.3-14.82-11.23-17.87-11.23-17.87,0,0-23.4,11.32-24.26,11.32s10.72,21.79,24.68,32.68c12.62,9.85,24.32,13.15,27.91,12.09,4.6-1.36,56.51-52.26,66.89-99.23Z"/>
          <path class="cls-7" d="M13.01,160.56s3.32,25.36,4.09,30.38c.64,4.18,6.56,9.72,13.11,9.45,4.09-.17,13.79-2.3,29.96-7.91,19.48-6.77,31.48-12.01,33.28-12.77,0,0-68.77,42.64-70.47,41.96s-6.3,3.57-8.68-.85c-1.21-2.25-9.79-8.5-10.72-17.36-3.32-31.66,5.53-40.85,9.45-42.89Z"/>
          <path class="cls-6" d="M179.39,104.22s-24.34,51.06-37.62,54.98c0,0,10.21,4.26,19.06-6.81s17.87-39.49,18.55-48.17Z"/>
          <path class="cls-6" d="M150.63,131.28s-28.26,14.98-32,16-20.09,16-23.49,19.91-8.85,9.53-10.55,10.04-10.89,2.89-11.91,2.04c0,0,11.74,2.21,17.53-1.87s21.62-25.19,27.4-26.89,32.51-17.53,33.02-19.23Z"/>
          <path class="cls-6" d="M67.65,159.41s-20.04,16.98-29.23,14.04c0,0,8.55,4.09,16.34-.26s12.89-13.79,12.89-13.79Z"/>
          <path class="cls-6" d="M65.67,153.15s20.85,6.7,32.62-2.68c7.53-6,8.49-9.89,8.49-10.91,0,0-11.87,17.74-41.11,13.6Z"/>
          <path class="cls-8" d="M113.48,122.64s-.77-20.3,1.53-23.11l-4.47,10.09s3.06,8.81,2.94,13.02Z"/>
          <path class="cls-6" d="M142.29,32s29.47,6.99,28.06,51.54l1.53.22s2.81-27.58-6.83-37.85c-12.21-13.02-22.77-13.91-22.77-13.91Z"/>
          <path class="cls-17" d="M232.84,16.7s2.2,14.41,1.96,24.56-2.72,15.24,1.63,12.41.29-35.15-.45-36.23-2.68-2.71-3.14-.74Z"/>
          <path class="cls-17" d="M266.42,48.34c-7.15,3.57-42,25.79-44.04,31.15s-4.47,8.55-3.45,13.66c.35,1.74,3.83-11.49,9.32-15.7,6.31-4.84,30.26-20.55,36-25.02,1.18-.91,8.82-7.41,2.17-4.09Z"/>
          <path class="cls-17" d="M287.22,87.15l-69.19,16.72s-10.09,3.06-14.68,9.7-10.72,15.96-10.72,15.96c0,0-2.17,4.09,3.83-2.17s14.94-18.13,25.28-20.17,73.02-19.79,65.49-20.04Z"/>
          <path class="cls-17" d="M169.52,151.88l51.83-12.26s12-1.79,22.21,5.74,33.19,22.85,33.19,22.85c0,0,9.97,8.69-4.47.51-15.32-8.68-34.09-21.19-42.64-22.6s-35.11,3.45-35.11,3.45c0,0-33.96,5.23-25.02,2.3Z"/>
          <path class="cls-17" d="M146.37,171.45s8.36.72,12.09,1.87,6.85,2.55,10.72,8.17c4.76,6.9,11.4,21.11,10.21,38.81s-4.6,30.98-4.6,30.98c0,0-3.34,10.15-1.53-8.85,1.71-17.94,6.64-29.47-5.33-55.84-2.15-4.73-5.91-8.62-10.67-10.7-7.64-3.34-15.34-3.4-10.89-4.43Z"/>
          <path class="cls-17" d="M119.61,174.73s-17.36,6-34.85,16.47-25.15,15.06-25.15,15.06c0,0-6,5.75,9.45-1.79,15.96-7.79,26.97-16.14,36.77-20.17,10.85-4.47,33.32-15.7,13.79-9.57Z"/>
          <path class="cls-17" d="M20.42,167.83c7.15,5.23,19.79,11.87,34.98,13.28,9.91.92,18.89,1.28,18.89,1.28,0,0,8.04,0-1.4,1.79s-22.17,1.52-34.21-3.83c-2.71-1.21-10.96-4.55-14.81-7.28-2.67-1.89-5.43-6.69-3.45-5.23Z"/>
          <path class="cls-3" d="M97.39,178.3s-5.44,1.14-19.28,1.79c-10.22.48-24.09-1.99-32.55-3.83-19.91-4.34-24.64-16.21-31.79-15.7s-12.64,21.32-10.98,35.11,14.04,28.21,14.04,28.21"/>
          <path class="cls-4" d="M113.48,123.92s-.89-15.7-9.15-28.89c-1.59-2.54-3.32-4.04-4-3.87s-3.19,3.91-4.3,5.83-6.43,11.66-7.7,11.66c-2.97,0-13.91.22-15.49.51-1.18.22-8.84-6.58-14.98-8.85-4.6-1.7-4.54-.96-4.98,1.57-.77,4.43,2.77,19.87,1.91,21.91s-4.72,8.85-4.21,13.79,2.43,10.85,8.81,13.11c8.38,2.96,23.32,3.4,31.32.51s14.13-9.02,15.83-12.77"/>
          <path class="cls-1" d="M158.03,78.85s-6.98-2.13-19.91,2.81-21.28,16-22.89,18.13-4.09,7.57-4.09,7.57"/>
          <path class="cls-3" d="M168.07,143.11s47.15-18.94,68.6-17.4,32.04,10.09,40.98,18,39.53,27.1,41.74,27.32c2.43.23-1.22,14.69-3.45,21.83-12.26,39.32-30.13,68.3-30.13,68.3,0,0-4.09,9.19-16.47,13.53-6.9,2.42-38.25,9.05-61.02,12.26-14.27,2.01-25.27.87-25.02.13,3.11-9.33,9.83-54.89,3.06-81.32s-14.55-32.3-20.04-36-25.4-4.85-31.02-3.83l5.11-4.94"/>
          <path class="cls-3" d="M177.18,139.68s20.17-28.4,21.45-29.17,5.62-8.17,19.66-11.74,88.72-21.83,91.53-22.09.77-3.06,11.23,9.19,14.59,24.27,10.85,44.68c-3.96,21.57-8.68,30.51-14.55,39.19"/>
          <path class="cls-3" d="M215.22,99.79s-2.04-21.7,11.74-31.4,51.96-35.11,51.96-35.11c0,0,1.66-2.94,11.87,6s16.47,17.87,18.51,30.26c.73,4.42.89,6.77.89,6.77"/>
          <path class="cls-3" d="M227.22,68s3.7-38.68-1.02-51.32c-4.2-11.24-2.3-16.6,6.64-13.15,2.04.79,32.94,12.51,45.19,30.89"/>
          <path class="cls-3" d="M135.95,166.43s-3.96,29.36-26.94,61.02-39.7,41.74-41.87,43.28c-1.47,1.04-4.85-.13,9.19,8.04,13.19,7.67,43.66,15.83,67.91,12.77s39.57-5.87,39.57-5.87"/>
          <path class="cls-3" d="M135.82,166.68s-21.25,3.69-26.04,5.87c-9.97,4.53-29.96,14.38-46.47,25.28-42.2,27.86-45.57,25.79-48.51,26.3-2.49.43,14.94,28.47,29.87,36.77,15.26,8.48,22.98,9.45,22.98,9.45"/>
          <path class="cls-2" d="M81.86,137.75s6.98-5.02,14.13-4.51"/>
          <path class="cls-2" d="M70.8,138.6s-4.26-2.55-13.02-1.62"/>
          <path class="cls-4" d="M55.73,148.56l-17.79,15.15s-4.34,3.57-2.81,6.64,6.03,3.6,8.13,4c2.21.43,7.99,1.05,10.85-.77,3.49-2.21,13.28-11.66,14.13-13.02l10.47.26-8.51,13.15s-1.45,2.64,1.02,4.09,10.64,1.36,14.55.26c2.11-.6,4.3-1.23,6.51-3.45s14.32-15.09,17.57-17.87c7.06-6.04,9.11-7.57,11.83-9.28s26.13-11.4,29.45-16.26c0,0-9.36,15.66-14.04,21.7s5.62,7.4,8.09,7.23c2.89-.2,12.17-1.02,19.23-13.02,6.09-10.34,11.88-25.61,14.21-36.68,1.96-9.28,1.02-19.15-1.62-23.49-.95-1.57-2.3-3.57-5.28-4.43-.6-.17,2.93-21.17-5.02-34.3-5.36-8.85-12.51-14.55-26.72-17.96s-28.26-.51-38.38,10.64c-2.2,2.42-8.68,10.81-6.04,15.91s10.38,4.43,13.28,2.38,5.91-8.39,8.26-10.55c3.32-3.06,11.43-6.94,20.09-4.26,9.87,3.06,12.27,5.57,16,14.04,2.81,6.38,2.81,10.72,1.11,19.15"/>
        </g>
      </g>
    </g>
  </g>
</svg>