<?xml version="1.0" encoding="UTF-8"?>
<svg xmlns="http://www.w3.org/2000/svg" viewBox="0 0 311.04 259.25">
  <defs>
    <style>
      .cls-1, .cls-2, .cls-3 {
        stroke-width: 5px;
      }

      .cls-1, .cls-2, .cls-3, .cls-4, .cls-5, .cls-6, .cls-7 {
        fill: none;
        stroke-linecap: round;
        stroke-linejoin: round;
      }

      .cls-1, .cls-6 {
        stroke: #59a2de;
      }

      .cls-8 {
        fill: #a0d5ef;
      }

      .cls-9 {
        fill: #cc9d6a;
      }

      .cls-2 {
        stroke: #000;
      }

      .cls-10 {
        fill: #4f342a;
      }

      .cls-11 {
        fill: #fff;
      }

      .cls-11, .cls-12, .cls-13 {
        opacity: .49;
      }

      .cls-12, .cls-14 {
        mix-blend-mode: overlay;
      }

      .cls-12, .cls-15, .cls-13 {
        fill: #231f20;
      }

      .cls-16 {
        isolation: isolate;
      }

      .cls-3, .cls-5 {
        stroke: #939598;
      }

      .cls-4 {
        stroke: #5e4b37;
      }

      .cls-4, .cls-6, .cls-7 {
        stroke-width: 3px;
      }

      .cls-5 {
        stroke-width: 2px;
      }

      .cls-15 {
        opacity: .19;
      }

      .cls-17 {
        fill: #fff5e8;
      }

      .cls-7 {
        stroke: #4f342a;
      }

      .cls-18 {
        fill: #e6e7e8;
      }
    </style>
  </defs>
  <g class="cls-16">
    <g id="Layer_2" data-name="Layer 2">
      <g id="Line_Art" data-name="Line Art">
        <g>
          <g>
            <path d="M309.34,207.74c0,13.32-16.04,25.8-45.17,35.14-28.95,9.27-67.43,14.38-108.35,14.38s-79.41-5.11-108.36-14.38c-29.13-9.33-45.17-21.82-45.17-35.14,0-18,30.19-34.59,78.81-43.3.09.32.19.64.3.96C33.22,174.02,3.29,190.24,3.29,207.74c0,26.75,68.42,48.52,152.53,48.52s152.52-21.77,152.52-48.52c0-14.74-20.44-28.42-56.09-37.55.18-.29.36-.59.54-.89,36.47,9.38,56.55,23.02,56.55,38.44Z"/>
            <path class="cls-18" d="M252.25,170.19c35.65,9.13,56.09,22.81,56.09,37.55,0,26.75-68.42,48.52-152.52,48.52S3.29,234.49,3.29,207.74c0-17.5,29.93-33.72,78.11-42.34,2.19,6.96,4.61,12.52,7.14,15.43,6.22,7.16,11.81,12.03,20.9,16.04l2.39,8.87.25.09c.21.07,21.12,7.01,46.27,8.19,2.14.1,4.32.15,6.52.15,17.37,0,35.36-2.95,40.85-5.29l.17-.08,3.39-7.26.87-.21c18.01-4.41,28.93-14.47,33.83-20.07,1.91-2.18,4.96-5.67,8.27-11.07Z"/>
            <path d="M268.44,91.02c1.12,41.61-7.85,65.21-15.65,78.28-.22-.06-.43-.11-.65-.17l-.25.97.36.09c-3.31,5.4-6.36,8.89-8.27,11.07-4.9,5.6-15.82,15.66-33.83,20.07l-.87.21.1-.22-.91-.42-.04-.18c.5-.12.99-.24,1.48-.36,17.75-4.34,28.49-14.25,33.32-19.76,6.38-7.3,25.82-29.53,24.21-89.53l-.29-4.41c-.08-.4-2.06-10.99-11.32-10.29-.08-.33-.17-.66-.26-.98,10.34-.91,12.55,11.03,12.57,11.15l.3,4.48Z"/>
            <path class="cls-8" d="M267.44,91.07c1.61,60-17.83,82.23-24.21,89.53-4.83,5.51-15.57,15.42-33.32,19.76-.49.12-.98.24-1.48.36-25.17,5.92-53.47,6.78-66.64,4.14-14.25-2.85-23.98-5.49-31.37-8.67-9.29-4-14.89-8.84-21.12-16.02-4.36-5.02-8.41-18.06-11.51-32.61-3.84-18.04-6.23-38.41-5.98-48.7.05-.81,1.51-19.58,17.12-20.15-3.01,7.29-4.73,12.7-4.77,12.83l-.1.34.94.7c16.48,9.27,44.8,20.42,86.13,20.85.61,0,1.22.01,1.82.01,42.78,0,71.55-15.7,84.98-25.15l-.19-.28c-.26-4.15-.94-8.03-1.91-11.64,9.26-.7,11.24,9.89,11.32,10.29l.29,4.41Z"/>
            <path d="M257.74,88.01l.19.28c-13.43,9.45-42.2,25.15-84.98,25.15-.6,0-1.21-.01-1.82-.01-41.33-.43-69.65-11.58-86.13-20.85l-.94-.7.1-.34c.04-.13,1.76-5.54,4.77-12.83.23-.01.48-.01.72-.01h.01v-1h-.01c-.1,0-.21,0-.31.01,4.6-11.01,11.98-25.83,20.87-33.59,1.3-1.14,2.69-2.3,4.16-3.47-.01.11-.02.19-.02.24l1,.05.11.14c-1.63,1.28-3.16,2.56-4.59,3.8-14.17,12.36-24.48,43.06-25.64,46.63l.31.23c16.33,9.18,44.48,20.26,85.6,20.69.6,0,1.21.01,1.81.01,41.85,0,70.18-15.11,83.78-24.53-1.34-20.17-12.64-33.81-18.74-41.16-.93-1.13-1.74-2.11-2.4-2.96-.5-.65-1.67-1.72-3.38-3.05l1,.64s-.06-.49-.17-1.27c1.67,1.33,2.82,2.4,3.34,3.07.65.84,1.45,1.81,2.38,2.93,4.83,5.82,12.87,15.52,16.81,29.28-.15.01-.29.02-.44.04l.13.99c.2-.02.39-.04.57-.05.97,3.61,1.65,7.49,1.91,11.64Z"/>
            <path d="M255.83,76.37c-.18,0-.37.03-.57.05l-.13-.99c.15-.02.29-.03.44-.04.09.32.18.65.26.98Z"/>
            <path d="M252.14,169.13c.22.06.43.11.65.17-.18.3-.36.6-.54.89l-.36-.09.25-.97Z"/>
            <path class="cls-17" d="M237.99,46.75c6.1,7.35,17.4,20.99,18.74,41.16-13.6,9.42-41.93,24.53-83.78,24.53-.6,0-1.21-.01-1.81-.01-41.12-.43-69.27-11.51-85.6-20.69l-.31-.23c1.16-3.57,11.47-34.27,25.64-46.63,1.43-1.24,2.96-2.52,4.59-3.8,8.86-6.98,20.73-14.24,35.36-18.62,7.19-2.16,15.05-3.62,23.54-4.01,6.51-.29,13.43.91,20.19,2.93,15.89,4.76,30.88,14.09,37.61,19.32.01.01.03.02.05.04,1.71,1.33,2.88,2.4,3.38,3.05.66.85,1.47,1.83,2.4,2.96Z"/>
            <path d="M233.21,41.38l-1-.64s-.04-.03-.05-.04c0-.06-.07-.56-.2-1.43.38.28.74.56,1.08.84.11.78.17,1.22.17,1.27Z"/>
            <path d="M233.04,40.11c-.34-.28-.7-.56-1.08-.84-.71-4.76-3.26-20.39-6.22-32.39-1.06-4.29-1.76-4.09-3.92-4.59-2.04-.47-4.21-.13-5.78.76-.66.38-2.4,1.99-2.9,2.3-3.49,2.18-14.86,12.44-17.82,15.13h-.01c-.37-.11-.74-.22-1.11-.32,2.07-1.88,14.88-13.46,18.73-15.87.49-.31,2.72-1.77,3.36-2.13,1.11-.61,3.19-1.4,4.77-.89,2.47.8,4.62,1.04,5.78,5.74,3.04,12.28,5.54,28.49,6.2,33.1Z"/>
            <path d="M231.96,39.27c.13.87.2,1.37.2,1.43-6.73-5.23-21.72-14.56-37.61-19.32l.07-.26s.27-.25.69-.64h.01c15.31,4.62,29.54,13.37,36.64,18.79Z"/>
            <path class="cls-9" d="M225.74,6.88c2.96,12,5.51,27.63,6.22,32.39-7.1-5.42-21.33-14.17-36.64-18.79,2.96-2.69,14.33-12.95,17.82-15.13.5-.31,2.24-1.92,2.9-2.3,1.57-.89,3.74-1.23,5.78-.76,2.16.5,2.86.3,3.92,4.59Z"/>
            <path d="M209.38,201.32l-.1.22c-.41.1-.82.2-1.24.29l.43-.93.91.42Z"/>
            <path d="M209.28,201.54l-3.39,7.26-.17.08c-5.49,2.34-23.48,5.29-40.85,5.29-2.2,0-4.38-.05-6.52-.15-25.15-1.18-46.06-8.12-46.27-8.19l-.25-.09-2.39-8.87c.38.17.77.33,1.17.5l2.04,7.59c2.45.79,22.24,6.96,45.74,8.06,18.84.89,40.44-2.39,46.76-4.99l2.89-6.2c.42-.09.83-.19,1.24-.29Z"/>
            <path d="M208.43,200.72l.04.18-.43.93c-16.27,3.77-33.79,5.44-47.7,5.44-7.59,0-14.1-.5-18.75-1.43-13.94-2.78-23.6-5.38-30.98-8.47l-.27-1,.08-.18c7.39,3.18,17.12,5.82,31.37,8.67,13.17,2.64,41.47,1.78,66.64-4.14Z"/>
            <path class="cls-8" d="M208.04,201.83l-2.89,6.2c-6.32,2.6-27.92,5.88-46.76,4.99-23.5-1.1-43.29-7.27-45.74-8.06l-2.04-7.59c7.38,3.09,17.04,5.69,30.98,8.47,4.65.93,11.16,1.43,18.75,1.43,13.91,0,31.43-1.67,47.7-5.44Z"/>
            <path d="M194.2,20.16c.37.1.74.21,1.11.32-.42.39-.67.62-.69.64l-.67-.74s.13-.12.25-.22Z"/>
            <path d="M193.95,20.38l.67.74-.07.26c-6.76-2.02-13.68-3.22-20.19-2.93-8.49.39-16.35,1.85-23.54,4.01l-.08-.28.76-.65s-.11-.1-.27-.24c7.07-2.06,14.77-3.46,23.08-3.84,6.48-.3,13.27.81,19.89,2.71-.12.1-.21.18-.25.22Z"/>
            <path d="M151.5,21.53l-.76.65s-.23-.22-.6-.56c.36-.12.72-.23,1.09-.33.16.14.26.22.27.24Z"/>
            <path d="M151.23,21.29c-.37.1-.73.21-1.09.33-2.11-1.89-9.48-8.31-17.45-13.58-2.98-1.97-6.68-3.44-7.97-2.9-1.49.61-2.85,4.43-3.37,6.94-.22,1.06-1.55,6.61-1.87,7.66-1.39,4.61-3.35,16.24-3.95,20-.4.31-.78.61-1.16.91.25-2.22,2.51-15.65,4.13-21,.31-1,2.01-7.26,2.23-8.3.57-2.77,2-5.94,3.99-6.76,1.64-.68,4.87.9,8.2,3.1,8.58,5.67,16.73,12.28,18.31,13.6Z"/>
            <path d="M150.74,22.18l.08.28c-14.63,4.38-26.5,11.64-35.36,18.62l-.11-.14s.06-.48.18-1.2c8.78-6.8,20.4-13.8,34.61-18.12.37.34.58.54.6.56Z"/>
            <path class="cls-9" d="M132.69,8.04c7.97,5.27,15.34,11.69,17.45,13.58-14.21,4.32-25.83,11.32-34.61,18.12.6-3.76,2.56-15.39,3.95-20,.32-1.05,1.65-6.6,1.87-7.66.52-2.51,1.88-6.33,3.37-6.94,1.29-.54,4.99.93,7.97,2.9Z"/>
            <path d="M114.37,40.65c.38-.3.76-.6,1.16-.91-.12.72-.18,1.16-.18,1.2l-1-.05c0-.05.01-.13.02-.24Z"/>
            <path d="M110.34,196.37l.27,1c-.4-.17-.79-.33-1.17-.5l-.06-.24.96-.26Z"/>
            <path d="M110.42,196.19l-.08.18-.96.26.06.24c-9.09-4.01-14.68-8.88-20.9-16.04-2.53-2.91-4.95-8.47-7.14-15.43h.02l-.18-.99c-.05.01-.09.02-.14.03-.8-2.59-1.57-5.37-2.3-8.27.29-.06.45-.1.46-.1l-.24-.97s-.17.04-.46.09c-.58-2.35-1.14-4.77-1.67-7.24.55-.19.82-.36.87-.38h.03c3.1,14.54,7.15,27.58,11.51,32.6,6.23,7.18,11.83,12.02,21.12,16.02Z"/>
            <path d="M89.66,77.7v1h-.01c-.24,0-.49,0-.72.01.13-.33.27-.66.41-1,.1-.01.21-.01.31-.01h.01Z"/>
            <path d="M89.34,77.71c-.14.34-.28.67-.41,1-15.61.57-17.07,19.34-17.12,20.15-.25,10.29,2.14,30.66,5.98,48.7h-.03s-.52-.85-.52-.85c-.01,0-.19.11-.56.25-3.78-17.96-6.11-37.96-5.87-48.14,0-.04.05-.67.21-1.69.14.08.23.14.27.16l.53-.85s-.23-.14-.62-.35c.3-1.59.83-3.73,1.73-5.98.25.1.39.16.41.17l.41-.91s-.17-.08-.44-.19c2.4-5.5,7.07-11.35,16.03-11.47Z"/>
            <path d="M81.24,164.41l.18.99h-.02c-.11-.32-.21-.64-.3-.96.05,0,.09-.02.14-.03Z"/>
            <path d="M79.02,155.1l.24.97s-.17.04-.46.1c-.08-.32-.16-.65-.24-.98.29-.05.45-.09.46-.09Z"/>
            <path d="M78.56,155.19c.08.33.16.66.24.98-.89.16-3.02.49-6.04.49-4.98,0-12.36-.9-20.49-4.92-6.07-3.01-11.09-9.97-13.76-19.1-3.82-13.07-2.28-27.7,4.03-38.18,8.24-13.72,27.6-6.57,30.77-5.28-.13.31-.26.62-.38.93-3-1.23-21.7-8.17-29.54,4.86-6.16,10.25-7.67,24.57-3.92,37.39,2.59,8.86,7.42,15.6,13.25,18.48,12.71,6.3,23.52,4.79,25.84,4.35Z"/>
            <path d="M77.24,146.71l.52.86s-.32.19-.87.38l-.21-.99c.37-.14.55-.24.56-.25Z"/>
            <path class="cls-8" d="M76.89,147.95c.53,2.47,1.09,4.89,1.67,7.24-2.32.44-13.13,1.95-25.84-4.35-5.83-2.88-10.66-9.62-13.25-18.48-3.75-12.82-2.24-27.14,3.92-37.39,7.84-13.03,26.54-6.09,29.54-4.86-.9,2.25-1.43,4.39-1.73,5.98-2.87-1.53-15.04-7.06-22.69,3.96-5.05,7.27-6.59,19.35-3.75,29.36,2.08,7.35,6.27,12.72,11.79,15.12,7.36,3.21,12.52,4.05,15.91,4.05,2.16,0,3.61-.34,4.43-.63Z"/>
            <path d="M76.68,146.96l.21.99c-.82.29-2.27.63-4.43.63-3.39,0-8.55-.84-15.91-4.05-5.52-2.4-9.71-7.77-11.79-15.12-2.84-10.01-1.3-22.09,3.75-29.36,7.65-11.02,19.82-5.49,22.69-3.96-.07.38-.13.73-.18,1.04-2-1.15-14.08-7.47-21.69,3.49-4.89,7.04-6.38,18.77-3.61,28.52,2,7.05,5.99,12.19,11.23,14.48,12.01,5.24,17.99,3.96,19.73,3.34Z"/>
            <path d="M73.75,89.37l-.41.91s-.16-.07-.41-.17c.12-.31.25-.62.38-.93.27.11.42.18.44.19Z"/>
            <path d="M71.82,96.44l-.53.85s-.13-.08-.27-.16c.05-.31.11-.66.18-1.04.39.21.6.34.62.35Z"/>
          </g>
          <path class="cls-9" d="M186.37,68.71c-.33-.31-.73-.55-1.15-.74-.43-.45-.92-.78-1.46-.98-.44-.43-.98-.76-1.64-.91-1.4-.32-3.09.13-4.09,1.21-1.06.29-1.92,1.3-2.32,2.25-.5,1.19-.42,2.42.2,3.56,2.06,3.78,7.57,4.55,10.46,1.27,1.38-1.57,1.66-4.13,0-5.66Z"/>
          <path class="cls-9" d="M115.01,41.9s30.26-17.75,36.13-19.15l-2.77-2.68s-31.89,16.22-33.17,17.65-.19,4.18-.19,4.18Z"/>
          <path class="cls-9" d="M194.92,20.37s13.86,2.9,18.26,5.96,18.7,10.47,18.86,11.42-.41,3.63-.41,3.63c0,0-10.09-7.39-20.33-12.17-4.97-2.32-19.82-8.2-20.08-7.97s3.69-.87,3.69-.87Z"/>
          <path class="cls-9" d="M217.98,50.12c-.95-2.01-3.06-3.25-4.73-4.57-2.84-2.25-5.69-4.49-8.53-6.74-2.78-2.19-11.23-6.87-14.49-3.57-7.45,7.54-.19,18.88,8.14,22.65,4.59,2.07,9.95,2.26,14.7.58,3.63-1.28,6.87-4.24,4.92-8.36Z"/>
          <g class="cls-14">
            <path class="cls-13" d="M78.92,156.66l-1.16-4.8s-16.26,2.29-28.62-7.96-10.13-43.47-10.13-43.47c0,0-2.89,6.2-3.55,14.88-.66,8.68,4.08,22.17,12.23,31.85,8.15,9.68,31.24,9.5,31.24,9.5Z"/>
            <path class="cls-13" d="M102.76,84.92c-1.9-13.33,9.82-40.08,11.41-43.63-.03,1.08,0,1.59,0,1.59,0,0,5.83-2.85,6.09-8.98.26-6.13,5.06-28.43,5.06-28.43-4.41,1.74-7.83,18.21-8.85,25.87-.59,4.43-2.23,8.06-2.29,9.74-1.79,2.02-17.1,19.35-19.57,23.61-2.63,4.52-9.61,27.88-9.61,27.88l23.45,10.51s-3.65-3.86-5.69-18.16Z"/>
            <path class="cls-13" d="M198.84,23.31c.51-.68,22.43-20.38,22.43-20.38-7.19-1.82-28.08,16.11-28.47,18.26-.29,1.63,5.53,2.81,6.04,2.13Z"/>
            <path class="cls-13" d="M70.85,103.56c0-13.52,2.49-13.29,2.49-13.29,0,0,12.57,67.92,26.1,84.52,13.53,16.6,28.89,26.73,44.7,30.47,0,0-25.52-7.05-34.57-9.32,0,0-20.76-9.62-24.6-19.27-7.21-18.13-14.12-73.11-14.12-73.11Z"/>
          </g>
          <path class="cls-15" d="M99.73,190.57s-34.6,6.02-35.53,14.51c-1.66,15.16,60.77,29.84,121.28,21.42s53.96-23.19,53.96-23.19c0,0-8.41-10.93-12.43-9.26-1.73.72-20.08,5.78-21.1,10.88-1.45,7.27-30.68,7.83-40.85,7.66-8.54-.14-38.38-1.64-51.06-6-6.76-2.33-2.44-9.09-3.57-9.83-5.15-3.35-8.7-4.43-10.69-6.19Z"/>
          <path class="cls-12" d="M110.87,198.33s2.12,7.49,3.12,8.25c3.51,2.65,30.87,7.33,42.89,7.4,30.13.18,40.09-2.55,47.74-4.98l3.18-6.7s-34.46,4.15-46.84,4.15-50.1-8.12-50.1-8.12Z"/>
          <path class="cls-11" d="M144.14,117.52s17.21,2.03,37.3,1.19c17.52-.73,37.23-3.92,49.65-8.78,15.43-6.03,18.21-9.55,24.68-14.58s3.21,3.41-6.3,10.59-47.18,17.55-78.43,16.87-37.79-4.44-26.92-5.29Z"/>
          <path class="cls-11" d="M290.59,203.05c-3.95,5.31-.27,15.56-19.24,23.7s-56.27,14.77-60.72,14.51-17.22,4.34-5.22,4.6,44.68-7.4,51.83-9.7,32.17-10.26,36-19.04.34-18.06-2.64-14.06Z"/>
          <path class="cls-2" d="M251.72,169.61c35.26,8.98,56.82,22.57,56.82,38.13,0,27.07-68.51,49.02-153.02,49.02S2.5,234.8,2.5,207.73c0-18.41,31.68-34.45,78.53-42.83"/>
          <path class="cls-3" d="M227.88,193.54c7.32,2.83,11.55,6.18,11.55,9.76,0,10.15-33.91,18.38-75.74,18.38s-75.74-8.23-75.74-18.38c0-4,5.25-7.69,14.18-10.71"/>
          <path class="cls-3" d="M251.72,169.61c35.26,8.98,56.82,22.57,56.82,38.13,0,27.07-68.51,49.02-153.02,49.02S2.5,234.8,2.5,207.73c0-18.41,31.68-34.45,78.53-42.83"/>
          <path class="cls-1" d="M256.2,75.83c10.36-1.26,11.15,10.8,11.15,10.8l.3,4.43c1.57,58.72-16.72,81.16-24.34,89.87-3.68,4.21-14.43,15.23-33.57,19.91-25.89,6.33-54.94,7.19-68.34,4.51-32.43-6.49-41.53-11.91-52.77-24.85-9.87-11.36-18.06-62.95-17.61-81.67,0,0,2.21-20.88,17.19-20.8"/>
          <path class="cls-4" d="M84.62,91.89l-.27-.2s10.64-33.88,25.9-47.19c1.65-1.44,2.54-2.21,4.31-3.58"/>
          <path class="cls-4" d="M150.82,21.85c7.73-2.42,14.98-3.51,23.74-3.91,6.64-.3,12.61.7,19.43,2.8"/>
          <path class="cls-1" d="M109.57,196.49l2.38,8.85s20.77,6.98,46.13,8.17c19.38.91,41.19-2.55,47.15-5.11l3.41-7.31"/>
          <path class="cls-1" d="M71.26,96.86s-14.29-8.91-22.64,3.46c-7.4,10.98-4,38.55,7.83,43.74,15.04,6.6,19.09,3.19,19.09,3.19"/>
          <path class="cls-1" d="M73.25,89.82s-22.06-10.72-30.92,3.94c-12.6,20.85-7.06,48.61,9.87,57.53,14.45,7.61,26.64,4.29,26.64,4.29"/>
          <path class="cls-4" d="M114.56,40.91s4.11-20.59,5.82-26.2.94-14.21,10.47-7.91,19.98,15.06,19.98,15.06"/>
          <path class="cls-10" d="M204.65,48.8c0,4.37-2.35,6.38-5.87,6.38s-7.91-3.54-7.91-7.91,1.45-7.66,4.98-7.66,8.81,4.82,8.81,9.19Z"/>
          <path class="cls-10" d="M147.53,50.1c0,4.37,2.35,6.38,5.87,6.38s7.91-3.54,7.91-7.91-1.45-7.66-4.98-7.66-8.81,4.82-8.81,9.19Z"/>
          <path class="cls-10" d="M186.08,58.1c0,1.06-2.51,3.08-5.62,3.08s-5.62-2.01-5.62-3.08,2.51-1.93,5.62-1.93,5.62.86,5.62,1.93Z"/>
          <path class="cls-5" d="M14.59,219.33s18.89,18.89,70.81,27.23,82.04,4.43,82.04,4.43"/>
          <path class="cls-5" d="M275.35,183.2s21.11,6.47,24.85,18.89"/>
          <path class="cls-7" d="M170.85,64.9c.92,1.49,2.62,4,5.24,4s4.27-3.87,5.51-3.87c1,0,2.34,3.87,4.96,3.87s3.75-1.49,5.24-4"/>
          <path class="cls-4" d="M257.35,87.88s.59-20.68-16.21-37.42c-2.89-3.4-5.79-6.81-8.68-10.21-.37-2.18-.88-5.22-1.43-8.87-1.51-10.06-2.65-15.91-4.11-21.82-3.57-14.47-11.77-5.53-15.86-2.98-4.09,2.55-17.08,14.17-17.08,14.17"/>
          <path class="cls-6" d="M258.2,87.35c-14.02,9.86-44.01,26.03-87.36,25.57s-70.43-12.09-85.89-20.79l-1.04-.79"/>
        </g>
      </g>
    </g>
  </g>
</svg>