<?xml version="1.0" encoding="UTF-8"?><svg id="Layer_2" xmlns="http://www.w3.org/2000/svg" width="65.033" height="98.829" viewBox="0 0 65.033 98.829"><g id="Translate"><path d="M31.822,0C13.913,0,0,17.519,0,32.577h17.056c0-.536.049-1.096.146-1.657V14.108c0-.95,1.145-1.438,1.827-.755l5.75,5.75c1.486-.877,3.143-1.511,4.898-1.827.463-.098.95-.146,1.438-.195.219-.024.463-.049.707-.024,2.948,0,5.458.585,7.529,1.559.341.146.634.317.95.487l5.75-5.75c.682-.682,1.827-.195,1.827.755v16.959c.073.536.098,1.072.098,1.584,0,.122-.122,10.55-9.6,13.913-.098.049-.195.073-.292.098-1.706.682-3.582,1.048-5.531,1.048-.463,0-.902-.024-1.364-.073-2.047.146-3.996,1.023-5.434,2.485-1.608,1.584-2.51,3.777-2.51,6.018l.049,17.616,17.056-.049-.024-9.941c17.836-3.996,24.707-20.321,24.707-31.115C65.033,16.813,53.386,0,31.822,0Z" fill="#fff"/><path d="M30.225,28.945c0-1.73-.463-3.119-1.023-3.119s-1.023,1.389-1.023,3.119c0,1.706.463,3.095,1.023,3.095s1.023-1.389,1.023-3.095Z" fill="#fff"/><path d="M36.854,28.945c0-1.73-.463-3.119-1.023-3.119-.585,0-1.048,1.389-1.048,3.119,0,1.706.463,3.095,1.048,3.095.56,0,1.023-1.389,1.023-3.095Z" fill="#fff"/><path d="M32.516,78.429c-5.633,0-10.2,4.567-10.2,10.2s4.567,10.2,10.2,10.2,10.2-4.567,10.2-10.2-4.567-10.2-10.2-10.2Z" fill="#fff"/></g></svg>