<?xml version="1.0" encoding="UTF-8"?><svg id="Layer_2" xmlns="http://www.w3.org/2000/svg" width="98.809" height="98.809" viewBox="0 0 98.809 98.809"><g id="settings"><path d="M90.687,41.904l8.122-5.736c-2.792-6.741-2.319-5.598-5.111-12.339l-9.799,1.688-10.607-10.607,1.688-9.799c-6.741-2.792-5.598-2.319-12.339-5.111l-5.736,8.122h-15.001L36.168,0c-6.741,2.792-5.598,2.319-12.339,5.111l1.688,9.799-10.607,10.607-9.799-1.688c-2.792,6.741-2.319,5.598-5.111,12.339l8.122,5.736v15.001L0,62.641c2.792,6.741,2.319,5.598,5.111,12.339l9.799-1.688c4.485,4.485,6.123,6.123,10.607,10.607l-1.688,9.799c6.741,2.792,5.598,2.319,12.339,5.111l5.736-8.122h15.001l5.736,8.122c6.741-2.792,5.598-2.319,12.339-5.111l-1.688-9.799c4.485-4.485,6.123-6.123,10.607-10.607l9.799,1.688c2.792-6.741,2.319-5.598,5.111-12.339l-8.122-5.736v-15.001ZM48.702,83.399c-18.357,0-33.292-14.935-33.292-33.292S30.345,16.815,48.702,16.815s33.292,14.935,33.292,33.292-14.935,33.292-33.292,33.292Z" fill="#fff"/><path d="M52.613,55.578c-.721,0-1.305,1.705-1.305,3.807s.584,3.807,1.305,3.807,1.305-1.705,1.305-3.807-.584-3.807-1.305-3.807Z" fill="#fff"/><path d="M48.702,19.815c-16.703,0-30.292,13.589-30.292,30.292,0,11.115,6.022,20.845,14.97,26.115v-36.01c0-.26.321-.385.505-.201,3.622,3.622,5.819,5.819,9.548,9.548h11.845c3.776-3.776,5.974-5.974,9.617-9.618.186-.186.511-.06.511.203l.021,35.201c8.169-5.431,13.567-14.715,13.567-25.24,0-16.703-13.589-30.292-30.292-30.292Z" fill="#fff"/><path d="M46.196,55.578c-.721,0-1.305,1.705-1.305,3.807s.584,3.807,1.305,3.807,1.305-1.705,1.305-3.807-.584-3.807-1.305-3.807Z" fill="#fff"/></g></svg>