<?xml version="1.0" encoding="UTF-8"?><svg id="Layer_2" xmlns="http://www.w3.org/2000/svg" width="100.323" height="100.363" viewBox="0 0 100.323 100.363"><g id="Submit"><path d="M78.229,7.523L9.437,76.315l14.571,14.571L92.8,22.094l-14.571-14.571ZM23.504,76.742c-1.039,1.039-2.73,1.039-3.77,0l-.996-.996c-1.039-1.039-1.039-2.73,0-3.769L76.332,14.382c1.039-1.039,2.73-1.04,3.769,0l.996.996c1.039,1.039,1.039,2.731,0,3.77l-57.594,57.594Z" fill="#fff"/><path d="M88.861.81c-1.081-1.081-2.839-1.081-3.919,0l-4.877,4.877,14.571,14.571,4.877-4.877c1.081-1.081,1.081-2.839,0-3.919L88.861.81Z" fill="#fff"/><polygon points="21.666 92.216 8.147 78.697 0 100.363 21.666 92.216" fill="#fff"/></g></svg>