<?xml version="1.0" encoding="UTF-8"?><svg id="Layer_2" xmlns="http://www.w3.org/2000/svg" width="82.319" height="82.319" viewBox="0 0 82.319 82.319"><g id="view"><path d="M75.265,0h-28.379C21.033,0,0,21.033,0,46.886v28.378c0,3.89,3.165,7.054,7.054,7.054h28.724c25.663,0,46.542-20.878,46.542-46.541V7.054c0-3.89-3.165-7.054-7.054-7.054ZM40.092,10.071c16.133,0,29.259,13.125,29.259,29.259s-13.125,29.259-29.259,29.259-29.259-13.125-29.259-29.259,13.125-29.259,29.259-29.259ZM79.319,35.778c0,24.009-19.533,43.541-43.542,43.541H7.054c-2.235,0-4.054-1.819-4.054-4.054v-28.378c0-2.963.299-5.857.862-8.656-.011.366-.028.731-.028,1.1,0,20.025,16.234,36.259,36.259,36.259s36.259-16.234,36.259-36.259c0-19.08-14.741-34.707-33.454-36.14,1.315-.119,2.644-.19,3.989-.19h28.379c2.235,0,4.054,1.819,4.054,4.054v28.724Z" fill="#fff"/><path d="M12.833,39.33c0,15.031,12.228,27.259,27.259,27.259s27.259-12.228,27.259-27.259-12.228-27.259-27.259-27.259c-7.029,0-13.445,2.675-18.284,7.059,1.451-.659,3.058-1.035,4.755-1.035,6.369,0,11.532,5.163,11.532,11.532s-5.163,11.532-11.532,11.532-11.532-5.163-11.532-11.532c0-.386.021-.766.058-1.142-1.448,3.326-2.256,6.992-2.256,10.844Z" fill="#fff"/></g></svg>