<?xml version="1.0" encoding="UTF-8"?><svg id="Layer_2" xmlns="http://www.w3.org/2000/svg" width="117.891" height="119.03" viewBox="0 0 117.891 119.03"><g id="Translate"><path d="M52.25,67.25h-1.47c-.828,0-1.5-.671-1.5-1.5l-.03-10.97c-6.037,0-10.949-4.908-10.949-10.94V10.94c0-6.033,4.912-10.94,10.949-10.94h57.7c6.032,0,10.94,4.908,10.94,10.94v32.9c0,6.032-4.908,10.94-10.94,10.94h-41.608l-12.031,12.03c-.281.281-.663.439-1.061.439ZM49.25,3c-4.383,0-7.949,3.562-7.949,7.94v32.9c0,4.378,3.566,7.94,7.949,7.94h1.53c.828,0,1.5.671,1.5,1.5v10.318l11.38-11.379c.281-.281.663-.439,1.061-.439h42.229c4.378,0,7.94-3.562,7.94-7.94V10.94c0-4.378-3.562-7.94-7.94-7.94h-57.7Z" fill="#fff"/><path d="M67.12,119.03h-1.479c-.397,0-.779-.158-1.061-.439-4.755-4.754-8.296-8.295-12.021-12.031H10.94c-6.032,0-10.94-4.908-10.94-10.94v-32.9c0-6.032,4.908-10.94,10.94-10.94h39.84c.828,0,1.5.671,1.5,1.5v10.318l11.38-11.379c.281-.281.663-.439,1.061-.439h3.92c6.043,0,10.96,4.908,10.96,10.94v32.9c0,6.032-4.917,10.94-10.96,10.94h-.021v10.97c0,.829-.672,1.5-1.5,1.5ZM10.94,54.78c-4.378,0-7.94,3.562-7.94,7.94v32.9c0,4.378,3.562,7.94,7.94,7.94h42.24c.398,0,.78.159,1.062.441,3.6,3.609,6.978,6.988,11.377,11.388v-10.329c0-.829.672-1.5,1.5-1.5h1.521c4.389,0,7.96-3.562,7.96-7.94v-32.9c0-4.378-3.571-7.94-7.96-7.94h-3.299l-12.031,12.03c-.281.281-.663.439-1.061.439h-1.47c-.828,0-1.5-.671-1.5-1.5v-10.97H10.94Z" fill="#fff"/><path d="M21.131,82.817l-2.436,7.376h-3.131l7.969-23.45h3.654l8.002,23.45h-3.236l-2.506-7.376h-8.315ZM28.821,80.451l-2.296-6.75c-.522-1.531-.871-2.923-1.219-4.279h-.069c-.348,1.392-.73,2.818-1.182,4.245l-2.298,6.784h7.064Z" fill="#fff"/><path d="M47.988,90.193l-.243-2.123h-.105c-.939,1.322-2.748,2.506-5.149,2.506-3.41,0-5.15-2.401-5.15-4.836,0-4.071,3.618-6.297,10.125-6.263v-.348c0-1.392-.382-3.896-3.826-3.896-1.566,0-3.201.487-4.384,1.252l-.696-2.018c1.393-.905,3.41-1.496,5.532-1.496,5.15,0,6.403,3.514,6.403,6.889v6.297c0,1.461.069,2.888.277,4.036h-2.783ZM47.537,81.599c-3.341-.069-7.133.522-7.133,3.792,0,1.983,1.322,2.923,2.888,2.923,2.193,0,3.584-1.392,4.071-2.818.103-.313.174-.661.174-.974v-2.923Z" fill="#fff"/><path d="M90.046,34.857l-7.839-7.839c-2.373-2.373-6.221-2.373-8.594,0l-7.702,7.702c-2.387,2.387-2.528,6.309-.148,8.702,1.185,1.192,2.742,1.787,4.299,1.787s3.104-.592,4.288-1.776h0c1.966-1.966,5.154-1.966,7.12,0h0c1.184,1.184,2.736,1.776,4.288,1.776s3.104-.592,4.288-1.776c2.368-2.368,2.368-6.208,0-8.576Z" fill="#fff"/><ellipse cx="71.989" cy="17.631" rx="3.818" ry="6.822" transform="translate(-1.985 13.035) rotate(-10.207)" fill="#fff"/><ellipse cx="83.882" cy="17.631" rx="6.822" ry="3.818" transform="translate(51.666 97.062) rotate(-79.793)" fill="#fff"/><ellipse cx="92.079" cy="25.238" rx="5.833" ry="3.347" transform="translate(30.338 98.064) rotate(-65.037)" fill="#fff"/><ellipse cx="63.792" cy="25.238" rx="3.347" ry="5.833" transform="translate(-4.692 29.28) rotate(-24.963)" fill="#fff"/></g></svg>